G04 #@! TF.GenerationSoftware,KiCad,Pcbnew,7.0.7-146-g6b43bb8fe3*
G04 #@! TF.CreationDate,2023-10-07T12:16:15+01:00*
G04 #@! TF.ProjectId,podule_econet,706f6475-6c65-45f6-9563-6f6e65742e6b,03*
G04 #@! TF.SameCoordinates,Original*
G04 #@! TF.FileFunction,Legend,Bot*
G04 #@! TF.FilePolarity,Positive*
%FSLAX46Y46*%
G04 Gerber Fmt 4.6, Leading zero omitted, Abs format (unit mm)*
G04 Created by KiCad (PCBNEW 7.0.7-146-g6b43bb8fe3) date 2023-10-07 12:16:15*
%MOMM*%
%LPD*%
G01*
G04 APERTURE LIST*
G04 Aperture macros list*
%AMRoundRect*
0 Rectangle with rounded corners*
0 $1 Rounding radius*
0 $2 $3 $4 $5 $6 $7 $8 $9 X,Y pos of 4 corners*
0 Add a 4 corners polygon primitive as box body*
4,1,4,$2,$3,$4,$5,$6,$7,$8,$9,$2,$3,0*
0 Add four circle primitives for the rounded corners*
1,1,$1+$1,$2,$3*
1,1,$1+$1,$4,$5*
1,1,$1+$1,$6,$7*
1,1,$1+$1,$8,$9*
0 Add four rect primitives between the rounded corners*
20,1,$1+$1,$2,$3,$4,$5,0*
20,1,$1+$1,$4,$5,$6,$7,0*
20,1,$1+$1,$6,$7,$8,$9,0*
20,1,$1+$1,$8,$9,$2,$3,0*%
G04 Aperture macros list end*
%ADD10C,0.200000*%
%ADD11C,0.300000*%
%ADD12R,1.600000X1.600000*%
%ADD13O,1.600000X1.600000*%
%ADD14C,1.600000*%
%ADD15R,1.700000X1.700000*%
%ADD16O,1.700000X1.700000*%
%ADD17C,2.850000*%
%ADD18RoundRect,0.249999X0.525001X-0.525001X0.525001X0.525001X-0.525001X0.525001X-0.525001X-0.525001X0*%
%ADD19C,1.550000*%
%ADD20C,6.000000*%
%ADD21C,3.250000*%
%ADD22C,2.500000*%
%ADD23C,3.000000*%
%ADD24R,1.500000X1.500000*%
%ADD25C,1.500000*%
%ADD26C,2.700000*%
%ADD27C,4.000000*%
G04 APERTURE END LIST*
D10*
X175603000Y-103525000D02*
X175603000Y-110525000D01*
X198603000Y-65525000D02*
G75*
G03*
X195103000Y-62025000I-3500000J0D01*
G01*
X170603000Y-140525000D02*
X121603000Y-140525000D01*
X174103000Y-59025000D02*
G75*
G03*
X170603000Y-55525000I-3500000J0D01*
G01*
X195103000Y-99525000D02*
X179103000Y-99525000D01*
X85090000Y-51920000D02*
X112090000Y-51920000D01*
X195103000Y-114025000D02*
X179103000Y-114025000D01*
X198603000Y-103525000D02*
G75*
G03*
X195103000Y-100025000I-3500000J0D01*
G01*
X198603000Y-103525000D02*
X198603000Y-110525000D01*
X121603000Y-55525000D02*
G75*
G03*
X118103000Y-59025000I0J-3500000D01*
G01*
X175603000Y-65525000D02*
X175603000Y-96025000D01*
X85090000Y-51920000D02*
G75*
G03*
X81590000Y-55420000I0J-3500000D01*
G01*
X179103000Y-100025000D02*
G75*
G03*
X175603000Y-103525000I0J-3500000D01*
G01*
X118103000Y-59025000D02*
X118103000Y-137025000D01*
X118103000Y-137025000D02*
G75*
G03*
X121603000Y-140525000I3500000J0D01*
G01*
X115590000Y-55420000D02*
X115590000Y-142420000D01*
X174103000Y-59025000D02*
X174103000Y-137025000D01*
X81590000Y-142420000D02*
X81590000Y-55420000D01*
X121603000Y-55525000D02*
X170603000Y-55525000D01*
X198603000Y-96025000D02*
X198603000Y-65525000D01*
X195103000Y-100025000D02*
X179103000Y-100025000D01*
X195103000Y-99525000D02*
G75*
G03*
X198603000Y-96025000I0J3500000D01*
G01*
X179103000Y-62025000D02*
G75*
G03*
X175603000Y-65525000I0J-3500000D01*
G01*
X112090000Y-145920000D02*
X85090000Y-145920000D01*
X81590000Y-142420000D02*
G75*
G03*
X85090000Y-145920000I3500000J0D01*
G01*
X115590000Y-55420000D02*
G75*
G03*
X112090000Y-51920000I-3500000J0D01*
G01*
X195103000Y-62025000D02*
X179103000Y-62025000D01*
X175603000Y-110525000D02*
G75*
G03*
X179103000Y-114025000I3500000J0D01*
G01*
X112090000Y-145920000D02*
G75*
G03*
X115590000Y-142420000I0J3500000D01*
G01*
X195103000Y-114025000D02*
G75*
G03*
X198603000Y-110525000I0J3500000D01*
G01*
X170603000Y-140525000D02*
G75*
G03*
X174103000Y-137025000I0J3500000D01*
G01*
X175603000Y-96025000D02*
G75*
G03*
X179103000Y-99525000I3500000J0D01*
G01*
D11*
X153840315Y-57522757D02*
X153340315Y-57522757D01*
X153126029Y-58308471D02*
X153840315Y-58308471D01*
X153840315Y-58308471D02*
X153840315Y-56808471D01*
X153840315Y-56808471D02*
X153126029Y-56808471D01*
X151840315Y-58237043D02*
X151983172Y-58308471D01*
X151983172Y-58308471D02*
X152268886Y-58308471D01*
X152268886Y-58308471D02*
X152411743Y-58237043D01*
X152411743Y-58237043D02*
X152483172Y-58165614D01*
X152483172Y-58165614D02*
X152554600Y-58022757D01*
X152554600Y-58022757D02*
X152554600Y-57594185D01*
X152554600Y-57594185D02*
X152483172Y-57451328D01*
X152483172Y-57451328D02*
X152411743Y-57379900D01*
X152411743Y-57379900D02*
X152268886Y-57308471D01*
X152268886Y-57308471D02*
X151983172Y-57308471D01*
X151983172Y-57308471D02*
X151840315Y-57379900D01*
X150983172Y-58308471D02*
X151126029Y-58237043D01*
X151126029Y-58237043D02*
X151197458Y-58165614D01*
X151197458Y-58165614D02*
X151268886Y-58022757D01*
X151268886Y-58022757D02*
X151268886Y-57594185D01*
X151268886Y-57594185D02*
X151197458Y-57451328D01*
X151197458Y-57451328D02*
X151126029Y-57379900D01*
X151126029Y-57379900D02*
X150983172Y-57308471D01*
X150983172Y-57308471D02*
X150768886Y-57308471D01*
X150768886Y-57308471D02*
X150626029Y-57379900D01*
X150626029Y-57379900D02*
X150554601Y-57451328D01*
X150554601Y-57451328D02*
X150483172Y-57594185D01*
X150483172Y-57594185D02*
X150483172Y-58022757D01*
X150483172Y-58022757D02*
X150554601Y-58165614D01*
X150554601Y-58165614D02*
X150626029Y-58237043D01*
X150626029Y-58237043D02*
X150768886Y-58308471D01*
X150768886Y-58308471D02*
X150983172Y-58308471D01*
X149840315Y-57308471D02*
X149840315Y-58308471D01*
X149840315Y-57451328D02*
X149768886Y-57379900D01*
X149768886Y-57379900D02*
X149626029Y-57308471D01*
X149626029Y-57308471D02*
X149411743Y-57308471D01*
X149411743Y-57308471D02*
X149268886Y-57379900D01*
X149268886Y-57379900D02*
X149197458Y-57522757D01*
X149197458Y-57522757D02*
X149197458Y-58308471D01*
X147911743Y-58237043D02*
X148054600Y-58308471D01*
X148054600Y-58308471D02*
X148340315Y-58308471D01*
X148340315Y-58308471D02*
X148483172Y-58237043D01*
X148483172Y-58237043D02*
X148554600Y-58094185D01*
X148554600Y-58094185D02*
X148554600Y-57522757D01*
X148554600Y-57522757D02*
X148483172Y-57379900D01*
X148483172Y-57379900D02*
X148340315Y-57308471D01*
X148340315Y-57308471D02*
X148054600Y-57308471D01*
X148054600Y-57308471D02*
X147911743Y-57379900D01*
X147911743Y-57379900D02*
X147840315Y-57522757D01*
X147840315Y-57522757D02*
X147840315Y-57665614D01*
X147840315Y-57665614D02*
X148554600Y-57808471D01*
X147411743Y-57308471D02*
X146840315Y-57308471D01*
X147197458Y-56808471D02*
X147197458Y-58094185D01*
X147197458Y-58094185D02*
X147126029Y-58237043D01*
X147126029Y-58237043D02*
X146983172Y-58308471D01*
X146983172Y-58308471D02*
X146840315Y-58308471D01*
X145197458Y-58308471D02*
X145197458Y-56808471D01*
X145197458Y-56808471D02*
X144697458Y-57879900D01*
X144697458Y-57879900D02*
X144197458Y-56808471D01*
X144197458Y-56808471D02*
X144197458Y-58308471D01*
X143268886Y-58308471D02*
X143411743Y-58237043D01*
X143411743Y-58237043D02*
X143483172Y-58165614D01*
X143483172Y-58165614D02*
X143554600Y-58022757D01*
X143554600Y-58022757D02*
X143554600Y-57594185D01*
X143554600Y-57594185D02*
X143483172Y-57451328D01*
X143483172Y-57451328D02*
X143411743Y-57379900D01*
X143411743Y-57379900D02*
X143268886Y-57308471D01*
X143268886Y-57308471D02*
X143054600Y-57308471D01*
X143054600Y-57308471D02*
X142911743Y-57379900D01*
X142911743Y-57379900D02*
X142840315Y-57451328D01*
X142840315Y-57451328D02*
X142768886Y-57594185D01*
X142768886Y-57594185D02*
X142768886Y-58022757D01*
X142768886Y-58022757D02*
X142840315Y-58165614D01*
X142840315Y-58165614D02*
X142911743Y-58237043D01*
X142911743Y-58237043D02*
X143054600Y-58308471D01*
X143054600Y-58308471D02*
X143268886Y-58308471D01*
X141483172Y-58308471D02*
X141483172Y-56808471D01*
X141483172Y-58237043D02*
X141626029Y-58308471D01*
X141626029Y-58308471D02*
X141911743Y-58308471D01*
X141911743Y-58308471D02*
X142054600Y-58237043D01*
X142054600Y-58237043D02*
X142126029Y-58165614D01*
X142126029Y-58165614D02*
X142197457Y-58022757D01*
X142197457Y-58022757D02*
X142197457Y-57594185D01*
X142197457Y-57594185D02*
X142126029Y-57451328D01*
X142126029Y-57451328D02*
X142054600Y-57379900D01*
X142054600Y-57379900D02*
X141911743Y-57308471D01*
X141911743Y-57308471D02*
X141626029Y-57308471D01*
X141626029Y-57308471D02*
X141483172Y-57379900D01*
X140126029Y-57308471D02*
X140126029Y-58308471D01*
X140768886Y-57308471D02*
X140768886Y-58094185D01*
X140768886Y-58094185D02*
X140697457Y-58237043D01*
X140697457Y-58237043D02*
X140554600Y-58308471D01*
X140554600Y-58308471D02*
X140340314Y-58308471D01*
X140340314Y-58308471D02*
X140197457Y-58237043D01*
X140197457Y-58237043D02*
X140126029Y-58165614D01*
X139197457Y-58308471D02*
X139340314Y-58237043D01*
X139340314Y-58237043D02*
X139411743Y-58094185D01*
X139411743Y-58094185D02*
X139411743Y-56808471D01*
X138054600Y-58237043D02*
X138197457Y-58308471D01*
X138197457Y-58308471D02*
X138483172Y-58308471D01*
X138483172Y-58308471D02*
X138626029Y-58237043D01*
X138626029Y-58237043D02*
X138697457Y-58094185D01*
X138697457Y-58094185D02*
X138697457Y-57522757D01*
X138697457Y-57522757D02*
X138626029Y-57379900D01*
X138626029Y-57379900D02*
X138483172Y-57308471D01*
X138483172Y-57308471D02*
X138197457Y-57308471D01*
X138197457Y-57308471D02*
X138054600Y-57379900D01*
X138054600Y-57379900D02*
X137983172Y-57522757D01*
X137983172Y-57522757D02*
X137983172Y-57665614D01*
X137983172Y-57665614D02*
X138697457Y-57808471D01*
X194014858Y-111808581D02*
X193157716Y-111808581D01*
X193586287Y-113308581D02*
X193586287Y-111808581D01*
X192086287Y-113237153D02*
X192229144Y-113308581D01*
X192229144Y-113308581D02*
X192514859Y-113308581D01*
X192514859Y-113308581D02*
X192657716Y-113237153D01*
X192657716Y-113237153D02*
X192729144Y-113094295D01*
X192729144Y-113094295D02*
X192729144Y-112522867D01*
X192729144Y-112522867D02*
X192657716Y-112380010D01*
X192657716Y-112380010D02*
X192514859Y-112308581D01*
X192514859Y-112308581D02*
X192229144Y-112308581D01*
X192229144Y-112308581D02*
X192086287Y-112380010D01*
X192086287Y-112380010D02*
X192014859Y-112522867D01*
X192014859Y-112522867D02*
X192014859Y-112665724D01*
X192014859Y-112665724D02*
X192729144Y-112808581D01*
X191372002Y-113308581D02*
X191372002Y-112308581D01*
X191372002Y-112594295D02*
X191300573Y-112451438D01*
X191300573Y-112451438D02*
X191229145Y-112380010D01*
X191229145Y-112380010D02*
X191086287Y-112308581D01*
X191086287Y-112308581D02*
X190943430Y-112308581D01*
X190443431Y-113308581D02*
X190443431Y-112308581D01*
X190443431Y-112451438D02*
X190372002Y-112380010D01*
X190372002Y-112380010D02*
X190229145Y-112308581D01*
X190229145Y-112308581D02*
X190014859Y-112308581D01*
X190014859Y-112308581D02*
X189872002Y-112380010D01*
X189872002Y-112380010D02*
X189800574Y-112522867D01*
X189800574Y-112522867D02*
X189800574Y-113308581D01*
X189800574Y-112522867D02*
X189729145Y-112380010D01*
X189729145Y-112380010D02*
X189586288Y-112308581D01*
X189586288Y-112308581D02*
X189372002Y-112308581D01*
X189372002Y-112308581D02*
X189229145Y-112380010D01*
X189229145Y-112380010D02*
X189157716Y-112522867D01*
X189157716Y-112522867D02*
X189157716Y-113308581D01*
X188443431Y-113308581D02*
X188443431Y-112308581D01*
X188443431Y-111808581D02*
X188514859Y-111880010D01*
X188514859Y-111880010D02*
X188443431Y-111951438D01*
X188443431Y-111951438D02*
X188372002Y-111880010D01*
X188372002Y-111880010D02*
X188443431Y-111808581D01*
X188443431Y-111808581D02*
X188443431Y-111951438D01*
X187729145Y-112308581D02*
X187729145Y-113308581D01*
X187729145Y-112451438D02*
X187657716Y-112380010D01*
X187657716Y-112380010D02*
X187514859Y-112308581D01*
X187514859Y-112308581D02*
X187300573Y-112308581D01*
X187300573Y-112308581D02*
X187157716Y-112380010D01*
X187157716Y-112380010D02*
X187086288Y-112522867D01*
X187086288Y-112522867D02*
X187086288Y-113308581D01*
X185729145Y-113308581D02*
X185729145Y-112522867D01*
X185729145Y-112522867D02*
X185800573Y-112380010D01*
X185800573Y-112380010D02*
X185943430Y-112308581D01*
X185943430Y-112308581D02*
X186229145Y-112308581D01*
X186229145Y-112308581D02*
X186372002Y-112380010D01*
X185729145Y-113237153D02*
X185872002Y-113308581D01*
X185872002Y-113308581D02*
X186229145Y-113308581D01*
X186229145Y-113308581D02*
X186372002Y-113237153D01*
X186372002Y-113237153D02*
X186443430Y-113094295D01*
X186443430Y-113094295D02*
X186443430Y-112951438D01*
X186443430Y-112951438D02*
X186372002Y-112808581D01*
X186372002Y-112808581D02*
X186229145Y-112737153D01*
X186229145Y-112737153D02*
X185872002Y-112737153D01*
X185872002Y-112737153D02*
X185729145Y-112665724D01*
X185229144Y-112308581D02*
X184657716Y-112308581D01*
X185014859Y-111808581D02*
X185014859Y-113094295D01*
X185014859Y-113094295D02*
X184943430Y-113237153D01*
X184943430Y-113237153D02*
X184800573Y-113308581D01*
X184800573Y-113308581D02*
X184657716Y-113308581D01*
X184157716Y-113308581D02*
X184157716Y-112308581D01*
X184157716Y-111808581D02*
X184229144Y-111880010D01*
X184229144Y-111880010D02*
X184157716Y-111951438D01*
X184157716Y-111951438D02*
X184086287Y-111880010D01*
X184086287Y-111880010D02*
X184157716Y-111808581D01*
X184157716Y-111808581D02*
X184157716Y-111951438D01*
X183229144Y-113308581D02*
X183372001Y-113237153D01*
X183372001Y-113237153D02*
X183443430Y-113165724D01*
X183443430Y-113165724D02*
X183514858Y-113022867D01*
X183514858Y-113022867D02*
X183514858Y-112594295D01*
X183514858Y-112594295D02*
X183443430Y-112451438D01*
X183443430Y-112451438D02*
X183372001Y-112380010D01*
X183372001Y-112380010D02*
X183229144Y-112308581D01*
X183229144Y-112308581D02*
X183014858Y-112308581D01*
X183014858Y-112308581D02*
X182872001Y-112380010D01*
X182872001Y-112380010D02*
X182800573Y-112451438D01*
X182800573Y-112451438D02*
X182729144Y-112594295D01*
X182729144Y-112594295D02*
X182729144Y-113022867D01*
X182729144Y-113022867D02*
X182800573Y-113165724D01*
X182800573Y-113165724D02*
X182872001Y-113237153D01*
X182872001Y-113237153D02*
X183014858Y-113308581D01*
X183014858Y-113308581D02*
X183229144Y-113308581D01*
X182086287Y-112308581D02*
X182086287Y-113308581D01*
X182086287Y-112451438D02*
X182014858Y-112380010D01*
X182014858Y-112380010D02*
X181872001Y-112308581D01*
X181872001Y-112308581D02*
X181657715Y-112308581D01*
X181657715Y-112308581D02*
X181514858Y-112380010D01*
X181514858Y-112380010D02*
X181443430Y-112522867D01*
X181443430Y-112522867D02*
X181443430Y-113308581D01*
X196864570Y-64982900D02*
X196650285Y-65054328D01*
X196650285Y-65054328D02*
X196293142Y-65054328D01*
X196293142Y-65054328D02*
X196150285Y-64982900D01*
X196150285Y-64982900D02*
X196078856Y-64911471D01*
X196078856Y-64911471D02*
X196007427Y-64768614D01*
X196007427Y-64768614D02*
X196007427Y-64625757D01*
X196007427Y-64625757D02*
X196078856Y-64482900D01*
X196078856Y-64482900D02*
X196150285Y-64411471D01*
X196150285Y-64411471D02*
X196293142Y-64340042D01*
X196293142Y-64340042D02*
X196578856Y-64268614D01*
X196578856Y-64268614D02*
X196721713Y-64197185D01*
X196721713Y-64197185D02*
X196793142Y-64125757D01*
X196793142Y-64125757D02*
X196864570Y-63982900D01*
X196864570Y-63982900D02*
X196864570Y-63840042D01*
X196864570Y-63840042D02*
X196793142Y-63697185D01*
X196793142Y-63697185D02*
X196721713Y-63625757D01*
X196721713Y-63625757D02*
X196578856Y-63554328D01*
X196578856Y-63554328D02*
X196221713Y-63554328D01*
X196221713Y-63554328D02*
X196007427Y-63625757D01*
X195364571Y-65054328D02*
X195364571Y-63554328D01*
X192650285Y-64911471D02*
X192721713Y-64982900D01*
X192721713Y-64982900D02*
X192935999Y-65054328D01*
X192935999Y-65054328D02*
X193078856Y-65054328D01*
X193078856Y-65054328D02*
X193293142Y-64982900D01*
X193293142Y-64982900D02*
X193435999Y-64840042D01*
X193435999Y-64840042D02*
X193507428Y-64697185D01*
X193507428Y-64697185D02*
X193578856Y-64411471D01*
X193578856Y-64411471D02*
X193578856Y-64197185D01*
X193578856Y-64197185D02*
X193507428Y-63911471D01*
X193507428Y-63911471D02*
X193435999Y-63768614D01*
X193435999Y-63768614D02*
X193293142Y-63625757D01*
X193293142Y-63625757D02*
X193078856Y-63554328D01*
X193078856Y-63554328D02*
X192935999Y-63554328D01*
X192935999Y-63554328D02*
X192721713Y-63625757D01*
X192721713Y-63625757D02*
X192650285Y-63697185D01*
X191793142Y-65054328D02*
X191935999Y-64982900D01*
X191935999Y-64982900D02*
X192007428Y-64840042D01*
X192007428Y-64840042D02*
X192007428Y-63554328D01*
X191007428Y-65054328D02*
X191150285Y-64982900D01*
X191150285Y-64982900D02*
X191221714Y-64911471D01*
X191221714Y-64911471D02*
X191293142Y-64768614D01*
X191293142Y-64768614D02*
X191293142Y-64340042D01*
X191293142Y-64340042D02*
X191221714Y-64197185D01*
X191221714Y-64197185D02*
X191150285Y-64125757D01*
X191150285Y-64125757D02*
X191007428Y-64054328D01*
X191007428Y-64054328D02*
X190793142Y-64054328D01*
X190793142Y-64054328D02*
X190650285Y-64125757D01*
X190650285Y-64125757D02*
X190578857Y-64197185D01*
X190578857Y-64197185D02*
X190507428Y-64340042D01*
X190507428Y-64340042D02*
X190507428Y-64768614D01*
X190507428Y-64768614D02*
X190578857Y-64911471D01*
X190578857Y-64911471D02*
X190650285Y-64982900D01*
X190650285Y-64982900D02*
X190793142Y-65054328D01*
X190793142Y-65054328D02*
X191007428Y-65054328D01*
X189221714Y-64982900D02*
X189364571Y-65054328D01*
X189364571Y-65054328D02*
X189650285Y-65054328D01*
X189650285Y-65054328D02*
X189793142Y-64982900D01*
X189793142Y-64982900D02*
X189864571Y-64911471D01*
X189864571Y-64911471D02*
X189935999Y-64768614D01*
X189935999Y-64768614D02*
X189935999Y-64340042D01*
X189935999Y-64340042D02*
X189864571Y-64197185D01*
X189864571Y-64197185D02*
X189793142Y-64125757D01*
X189793142Y-64125757D02*
X189650285Y-64054328D01*
X189650285Y-64054328D02*
X189364571Y-64054328D01*
X189364571Y-64054328D02*
X189221714Y-64125757D01*
X188578857Y-65054328D02*
X188578857Y-63554328D01*
X188436000Y-64482900D02*
X188007428Y-65054328D01*
X188007428Y-64054328D02*
X188578857Y-64625757D01*
X103027919Y-129955587D02*
X102313634Y-129955587D01*
X103170776Y-130384158D02*
X102670776Y-128884158D01*
X102670776Y-128884158D02*
X102170776Y-130384158D01*
X101027920Y-130384158D02*
X101027920Y-128884158D01*
X101027920Y-130312730D02*
X101170777Y-130384158D01*
X101170777Y-130384158D02*
X101456491Y-130384158D01*
X101456491Y-130384158D02*
X101599348Y-130312730D01*
X101599348Y-130312730D02*
X101670777Y-130241301D01*
X101670777Y-130241301D02*
X101742205Y-130098444D01*
X101742205Y-130098444D02*
X101742205Y-129669872D01*
X101742205Y-129669872D02*
X101670777Y-129527015D01*
X101670777Y-129527015D02*
X101599348Y-129455587D01*
X101599348Y-129455587D02*
X101456491Y-129384158D01*
X101456491Y-129384158D02*
X101170777Y-129384158D01*
X101170777Y-129384158D02*
X101027920Y-129455587D01*
X99670777Y-130384158D02*
X99670777Y-128884158D01*
X99670777Y-130312730D02*
X99813634Y-130384158D01*
X99813634Y-130384158D02*
X100099348Y-130384158D01*
X100099348Y-130384158D02*
X100242205Y-130312730D01*
X100242205Y-130312730D02*
X100313634Y-130241301D01*
X100313634Y-130241301D02*
X100385062Y-130098444D01*
X100385062Y-130098444D02*
X100385062Y-129669872D01*
X100385062Y-129669872D02*
X100313634Y-129527015D01*
X100313634Y-129527015D02*
X100242205Y-129455587D01*
X100242205Y-129455587D02*
X100099348Y-129384158D01*
X100099348Y-129384158D02*
X99813634Y-129384158D01*
X99813634Y-129384158D02*
X99670777Y-129455587D01*
X98956491Y-130384158D02*
X98956491Y-129384158D01*
X98956491Y-129669872D02*
X98885062Y-129527015D01*
X98885062Y-129527015D02*
X98813634Y-129455587D01*
X98813634Y-129455587D02*
X98670776Y-129384158D01*
X98670776Y-129384158D02*
X98527919Y-129384158D01*
X97456491Y-130312730D02*
X97599348Y-130384158D01*
X97599348Y-130384158D02*
X97885063Y-130384158D01*
X97885063Y-130384158D02*
X98027920Y-130312730D01*
X98027920Y-130312730D02*
X98099348Y-130169872D01*
X98099348Y-130169872D02*
X98099348Y-129598444D01*
X98099348Y-129598444D02*
X98027920Y-129455587D01*
X98027920Y-129455587D02*
X97885063Y-129384158D01*
X97885063Y-129384158D02*
X97599348Y-129384158D01*
X97599348Y-129384158D02*
X97456491Y-129455587D01*
X97456491Y-129455587D02*
X97385063Y-129598444D01*
X97385063Y-129598444D02*
X97385063Y-129741301D01*
X97385063Y-129741301D02*
X98099348Y-129884158D01*
X96813634Y-130312730D02*
X96670777Y-130384158D01*
X96670777Y-130384158D02*
X96385063Y-130384158D01*
X96385063Y-130384158D02*
X96242206Y-130312730D01*
X96242206Y-130312730D02*
X96170777Y-130169872D01*
X96170777Y-130169872D02*
X96170777Y-130098444D01*
X96170777Y-130098444D02*
X96242206Y-129955587D01*
X96242206Y-129955587D02*
X96385063Y-129884158D01*
X96385063Y-129884158D02*
X96599349Y-129884158D01*
X96599349Y-129884158D02*
X96742206Y-129812730D01*
X96742206Y-129812730D02*
X96813634Y-129669872D01*
X96813634Y-129669872D02*
X96813634Y-129598444D01*
X96813634Y-129598444D02*
X96742206Y-129455587D01*
X96742206Y-129455587D02*
X96599349Y-129384158D01*
X96599349Y-129384158D02*
X96385063Y-129384158D01*
X96385063Y-129384158D02*
X96242206Y-129455587D01*
X95599348Y-130312730D02*
X95456491Y-130384158D01*
X95456491Y-130384158D02*
X95170777Y-130384158D01*
X95170777Y-130384158D02*
X95027920Y-130312730D01*
X95027920Y-130312730D02*
X94956491Y-130169872D01*
X94956491Y-130169872D02*
X94956491Y-130098444D01*
X94956491Y-130098444D02*
X95027920Y-129955587D01*
X95027920Y-129955587D02*
X95170777Y-129884158D01*
X95170777Y-129884158D02*
X95385063Y-129884158D01*
X95385063Y-129884158D02*
X95527920Y-129812730D01*
X95527920Y-129812730D02*
X95599348Y-129669872D01*
X95599348Y-129669872D02*
X95599348Y-129598444D01*
X95599348Y-129598444D02*
X95527920Y-129455587D01*
X95527920Y-129455587D02*
X95385063Y-129384158D01*
X95385063Y-129384158D02*
X95170777Y-129384158D01*
X95170777Y-129384158D02*
X95027920Y-129455587D01*
X93170777Y-130384158D02*
X93170777Y-128884158D01*
X93170777Y-128884158D02*
X92813634Y-128884158D01*
X92813634Y-128884158D02*
X92599348Y-128955587D01*
X92599348Y-128955587D02*
X92456491Y-129098444D01*
X92456491Y-129098444D02*
X92385062Y-129241301D01*
X92385062Y-129241301D02*
X92313634Y-129527015D01*
X92313634Y-129527015D02*
X92313634Y-129741301D01*
X92313634Y-129741301D02*
X92385062Y-130027015D01*
X92385062Y-130027015D02*
X92456491Y-130169872D01*
X92456491Y-130169872D02*
X92599348Y-130312730D01*
X92599348Y-130312730D02*
X92813634Y-130384158D01*
X92813634Y-130384158D02*
X93170777Y-130384158D01*
X91099348Y-130312730D02*
X91242205Y-130384158D01*
X91242205Y-130384158D02*
X91527920Y-130384158D01*
X91527920Y-130384158D02*
X91670777Y-130312730D01*
X91670777Y-130312730D02*
X91742205Y-130169872D01*
X91742205Y-130169872D02*
X91742205Y-129598444D01*
X91742205Y-129598444D02*
X91670777Y-129455587D01*
X91670777Y-129455587D02*
X91527920Y-129384158D01*
X91527920Y-129384158D02*
X91242205Y-129384158D01*
X91242205Y-129384158D02*
X91099348Y-129455587D01*
X91099348Y-129455587D02*
X91027920Y-129598444D01*
X91027920Y-129598444D02*
X91027920Y-129741301D01*
X91027920Y-129741301D02*
X91742205Y-129884158D01*
X89742206Y-130312730D02*
X89885063Y-130384158D01*
X89885063Y-130384158D02*
X90170777Y-130384158D01*
X90170777Y-130384158D02*
X90313634Y-130312730D01*
X90313634Y-130312730D02*
X90385063Y-130241301D01*
X90385063Y-130241301D02*
X90456491Y-130098444D01*
X90456491Y-130098444D02*
X90456491Y-129669872D01*
X90456491Y-129669872D02*
X90385063Y-129527015D01*
X90385063Y-129527015D02*
X90313634Y-129455587D01*
X90313634Y-129455587D02*
X90170777Y-129384158D01*
X90170777Y-129384158D02*
X89885063Y-129384158D01*
X89885063Y-129384158D02*
X89742206Y-129455587D01*
X88885063Y-130384158D02*
X89027920Y-130312730D01*
X89027920Y-130312730D02*
X89099349Y-130241301D01*
X89099349Y-130241301D02*
X89170777Y-130098444D01*
X89170777Y-130098444D02*
X89170777Y-129669872D01*
X89170777Y-129669872D02*
X89099349Y-129527015D01*
X89099349Y-129527015D02*
X89027920Y-129455587D01*
X89027920Y-129455587D02*
X88885063Y-129384158D01*
X88885063Y-129384158D02*
X88670777Y-129384158D01*
X88670777Y-129384158D02*
X88527920Y-129455587D01*
X88527920Y-129455587D02*
X88456492Y-129527015D01*
X88456492Y-129527015D02*
X88385063Y-129669872D01*
X88385063Y-129669872D02*
X88385063Y-130098444D01*
X88385063Y-130098444D02*
X88456492Y-130241301D01*
X88456492Y-130241301D02*
X88527920Y-130312730D01*
X88527920Y-130312730D02*
X88670777Y-130384158D01*
X88670777Y-130384158D02*
X88885063Y-130384158D01*
X87099349Y-130384158D02*
X87099349Y-128884158D01*
X87099349Y-130312730D02*
X87242206Y-130384158D01*
X87242206Y-130384158D02*
X87527920Y-130384158D01*
X87527920Y-130384158D02*
X87670777Y-130312730D01*
X87670777Y-130312730D02*
X87742206Y-130241301D01*
X87742206Y-130241301D02*
X87813634Y-130098444D01*
X87813634Y-130098444D02*
X87813634Y-129669872D01*
X87813634Y-129669872D02*
X87742206Y-129527015D01*
X87742206Y-129527015D02*
X87670777Y-129455587D01*
X87670777Y-129455587D02*
X87527920Y-129384158D01*
X87527920Y-129384158D02*
X87242206Y-129384158D01*
X87242206Y-129384158D02*
X87099349Y-129455587D01*
X86385063Y-130384158D02*
X86385063Y-129384158D01*
X86385063Y-128884158D02*
X86456491Y-128955587D01*
X86456491Y-128955587D02*
X86385063Y-129027015D01*
X86385063Y-129027015D02*
X86313634Y-128955587D01*
X86313634Y-128955587D02*
X86385063Y-128884158D01*
X86385063Y-128884158D02*
X86385063Y-129027015D01*
X85670777Y-129384158D02*
X85670777Y-130384158D01*
X85670777Y-129527015D02*
X85599348Y-129455587D01*
X85599348Y-129455587D02*
X85456491Y-129384158D01*
X85456491Y-129384158D02*
X85242205Y-129384158D01*
X85242205Y-129384158D02*
X85099348Y-129455587D01*
X85099348Y-129455587D02*
X85027920Y-129598444D01*
X85027920Y-129598444D02*
X85027920Y-130384158D01*
X83670777Y-129384158D02*
X83670777Y-130598444D01*
X83670777Y-130598444D02*
X83742205Y-130741301D01*
X83742205Y-130741301D02*
X83813634Y-130812730D01*
X83813634Y-130812730D02*
X83956491Y-130884158D01*
X83956491Y-130884158D02*
X84170777Y-130884158D01*
X84170777Y-130884158D02*
X84313634Y-130812730D01*
X83670777Y-130312730D02*
X83813634Y-130384158D01*
X83813634Y-130384158D02*
X84099348Y-130384158D01*
X84099348Y-130384158D02*
X84242205Y-130312730D01*
X84242205Y-130312730D02*
X84313634Y-130241301D01*
X84313634Y-130241301D02*
X84385062Y-130098444D01*
X84385062Y-130098444D02*
X84385062Y-129669872D01*
X84385062Y-129669872D02*
X84313634Y-129527015D01*
X84313634Y-129527015D02*
X84242205Y-129455587D01*
X84242205Y-129455587D02*
X84099348Y-129384158D01*
X84099348Y-129384158D02*
X83813634Y-129384158D01*
X83813634Y-129384158D02*
X83670777Y-129455587D01*
X99206491Y-132799158D02*
X99277920Y-132799158D01*
X99277920Y-132799158D02*
X99420777Y-132727730D01*
X99420777Y-132727730D02*
X99635062Y-132513444D01*
X99635062Y-132513444D02*
X99992205Y-132084872D01*
X99992205Y-132084872D02*
X100135062Y-131870587D01*
X100135062Y-131870587D02*
X100206491Y-131656301D01*
X100206491Y-131656301D02*
X100206491Y-131513444D01*
X100206491Y-131513444D02*
X100135062Y-131370587D01*
X100135062Y-131370587D02*
X99992205Y-131299158D01*
X99992205Y-131299158D02*
X99920777Y-131299158D01*
X99920777Y-131299158D02*
X99777920Y-131370587D01*
X99777920Y-131370587D02*
X99706491Y-131513444D01*
X99706491Y-131513444D02*
X99706491Y-131584872D01*
X99706491Y-131584872D02*
X99777920Y-131727730D01*
X99777920Y-131727730D02*
X99849348Y-131799158D01*
X99849348Y-131799158D02*
X100277920Y-132084872D01*
X100277920Y-132084872D02*
X100349348Y-132156301D01*
X100349348Y-132156301D02*
X100420777Y-132299158D01*
X100420777Y-132299158D02*
X100420777Y-132513444D01*
X100420777Y-132513444D02*
X100349348Y-132656301D01*
X100349348Y-132656301D02*
X100277920Y-132727730D01*
X100277920Y-132727730D02*
X100135062Y-132799158D01*
X100135062Y-132799158D02*
X99920777Y-132799158D01*
X99920777Y-132799158D02*
X99777920Y-132727730D01*
X99777920Y-132727730D02*
X99706491Y-132656301D01*
X99706491Y-132656301D02*
X99492205Y-132370587D01*
X99492205Y-132370587D02*
X99420777Y-132156301D01*
X99420777Y-132156301D02*
X99420777Y-132013444D01*
X96920777Y-132013444D02*
X97420777Y-132013444D01*
X97420777Y-132799158D02*
X97420777Y-131299158D01*
X97420777Y-131299158D02*
X96706491Y-131299158D01*
X95920777Y-132799158D02*
X96063634Y-132727730D01*
X96063634Y-132727730D02*
X96135063Y-132584872D01*
X96135063Y-132584872D02*
X96135063Y-131299158D01*
X94706492Y-132799158D02*
X94706492Y-132013444D01*
X94706492Y-132013444D02*
X94777920Y-131870587D01*
X94777920Y-131870587D02*
X94920777Y-131799158D01*
X94920777Y-131799158D02*
X95206492Y-131799158D01*
X95206492Y-131799158D02*
X95349349Y-131870587D01*
X94706492Y-132727730D02*
X94849349Y-132799158D01*
X94849349Y-132799158D02*
X95206492Y-132799158D01*
X95206492Y-132799158D02*
X95349349Y-132727730D01*
X95349349Y-132727730D02*
X95420777Y-132584872D01*
X95420777Y-132584872D02*
X95420777Y-132442015D01*
X95420777Y-132442015D02*
X95349349Y-132299158D01*
X95349349Y-132299158D02*
X95206492Y-132227730D01*
X95206492Y-132227730D02*
X94849349Y-132227730D01*
X94849349Y-132227730D02*
X94706492Y-132156301D01*
X94063634Y-132727730D02*
X93920777Y-132799158D01*
X93920777Y-132799158D02*
X93635063Y-132799158D01*
X93635063Y-132799158D02*
X93492206Y-132727730D01*
X93492206Y-132727730D02*
X93420777Y-132584872D01*
X93420777Y-132584872D02*
X93420777Y-132513444D01*
X93420777Y-132513444D02*
X93492206Y-132370587D01*
X93492206Y-132370587D02*
X93635063Y-132299158D01*
X93635063Y-132299158D02*
X93849349Y-132299158D01*
X93849349Y-132299158D02*
X93992206Y-132227730D01*
X93992206Y-132227730D02*
X94063634Y-132084872D01*
X94063634Y-132084872D02*
X94063634Y-132013444D01*
X94063634Y-132013444D02*
X93992206Y-131870587D01*
X93992206Y-131870587D02*
X93849349Y-131799158D01*
X93849349Y-131799158D02*
X93635063Y-131799158D01*
X93635063Y-131799158D02*
X93492206Y-131870587D01*
X92777920Y-132799158D02*
X92777920Y-131299158D01*
X92135063Y-132799158D02*
X92135063Y-132013444D01*
X92135063Y-132013444D02*
X92206491Y-131870587D01*
X92206491Y-131870587D02*
X92349348Y-131799158D01*
X92349348Y-131799158D02*
X92563634Y-131799158D01*
X92563634Y-131799158D02*
X92706491Y-131870587D01*
X92706491Y-131870587D02*
X92777920Y-131942015D01*
X89420777Y-132799158D02*
X89920777Y-132084872D01*
X90277920Y-132799158D02*
X90277920Y-131299158D01*
X90277920Y-131299158D02*
X89706491Y-131299158D01*
X89706491Y-131299158D02*
X89563634Y-131370587D01*
X89563634Y-131370587D02*
X89492205Y-131442015D01*
X89492205Y-131442015D02*
X89420777Y-131584872D01*
X89420777Y-131584872D02*
X89420777Y-131799158D01*
X89420777Y-131799158D02*
X89492205Y-131942015D01*
X89492205Y-131942015D02*
X89563634Y-132013444D01*
X89563634Y-132013444D02*
X89706491Y-132084872D01*
X89706491Y-132084872D02*
X90277920Y-132084872D01*
X88492205Y-131299158D02*
X88206491Y-131299158D01*
X88206491Y-131299158D02*
X88063634Y-131370587D01*
X88063634Y-131370587D02*
X87920777Y-131513444D01*
X87920777Y-131513444D02*
X87849348Y-131799158D01*
X87849348Y-131799158D02*
X87849348Y-132299158D01*
X87849348Y-132299158D02*
X87920777Y-132584872D01*
X87920777Y-132584872D02*
X88063634Y-132727730D01*
X88063634Y-132727730D02*
X88206491Y-132799158D01*
X88206491Y-132799158D02*
X88492205Y-132799158D01*
X88492205Y-132799158D02*
X88635063Y-132727730D01*
X88635063Y-132727730D02*
X88777920Y-132584872D01*
X88777920Y-132584872D02*
X88849348Y-132299158D01*
X88849348Y-132299158D02*
X88849348Y-131799158D01*
X88849348Y-131799158D02*
X88777920Y-131513444D01*
X88777920Y-131513444D02*
X88635063Y-131370587D01*
X88635063Y-131370587D02*
X88492205Y-131299158D01*
X87206491Y-132799158D02*
X87206491Y-131299158D01*
X87206491Y-131299158D02*
X86706491Y-132370587D01*
X86706491Y-132370587D02*
X86206491Y-131299158D01*
X86206491Y-131299158D02*
X86206491Y-132799158D01*
X197663582Y-59570325D02*
X197663582Y-58070325D01*
X197663582Y-58070325D02*
X197092153Y-58070325D01*
X197092153Y-58070325D02*
X196949296Y-58141754D01*
X196949296Y-58141754D02*
X196877867Y-58213182D01*
X196877867Y-58213182D02*
X196806439Y-58356039D01*
X196806439Y-58356039D02*
X196806439Y-58570325D01*
X196806439Y-58570325D02*
X196877867Y-58713182D01*
X196877867Y-58713182D02*
X196949296Y-58784611D01*
X196949296Y-58784611D02*
X197092153Y-58856039D01*
X197092153Y-58856039D02*
X197663582Y-58856039D01*
X196163582Y-59570325D02*
X196163582Y-58570325D01*
X196163582Y-58070325D02*
X196235010Y-58141754D01*
X196235010Y-58141754D02*
X196163582Y-58213182D01*
X196163582Y-58213182D02*
X196092153Y-58141754D01*
X196092153Y-58141754D02*
X196163582Y-58070325D01*
X196163582Y-58070325D02*
X196163582Y-58213182D01*
X194806439Y-59498897D02*
X194949296Y-59570325D01*
X194949296Y-59570325D02*
X195235010Y-59570325D01*
X195235010Y-59570325D02*
X195377867Y-59498897D01*
X195377867Y-59498897D02*
X195449296Y-59427468D01*
X195449296Y-59427468D02*
X195520724Y-59284611D01*
X195520724Y-59284611D02*
X195520724Y-58856039D01*
X195520724Y-58856039D02*
X195449296Y-58713182D01*
X195449296Y-58713182D02*
X195377867Y-58641754D01*
X195377867Y-58641754D02*
X195235010Y-58570325D01*
X195235010Y-58570325D02*
X194949296Y-58570325D01*
X194949296Y-58570325D02*
X194806439Y-58641754D01*
X193949296Y-59570325D02*
X194092153Y-59498897D01*
X194092153Y-59498897D02*
X194163582Y-59427468D01*
X194163582Y-59427468D02*
X194235010Y-59284611D01*
X194235010Y-59284611D02*
X194235010Y-58856039D01*
X194235010Y-58856039D02*
X194163582Y-58713182D01*
X194163582Y-58713182D02*
X194092153Y-58641754D01*
X194092153Y-58641754D02*
X193949296Y-58570325D01*
X193949296Y-58570325D02*
X193735010Y-58570325D01*
X193735010Y-58570325D02*
X193592153Y-58641754D01*
X193592153Y-58641754D02*
X193520725Y-58713182D01*
X193520725Y-58713182D02*
X193449296Y-58856039D01*
X193449296Y-58856039D02*
X193449296Y-59284611D01*
X193449296Y-59284611D02*
X193520725Y-59427468D01*
X193520725Y-59427468D02*
X193592153Y-59498897D01*
X193592153Y-59498897D02*
X193735010Y-59570325D01*
X193735010Y-59570325D02*
X193949296Y-59570325D01*
X192806439Y-59570325D02*
X192806439Y-58070325D01*
X192806439Y-58070325D02*
X191949296Y-59570325D01*
X191949296Y-59570325D02*
X191949296Y-58070325D01*
X190663581Y-59498897D02*
X190806438Y-59570325D01*
X190806438Y-59570325D02*
X191092153Y-59570325D01*
X191092153Y-59570325D02*
X191235010Y-59498897D01*
X191235010Y-59498897D02*
X191306438Y-59356039D01*
X191306438Y-59356039D02*
X191306438Y-58784611D01*
X191306438Y-58784611D02*
X191235010Y-58641754D01*
X191235010Y-58641754D02*
X191092153Y-58570325D01*
X191092153Y-58570325D02*
X190806438Y-58570325D01*
X190806438Y-58570325D02*
X190663581Y-58641754D01*
X190663581Y-58641754D02*
X190592153Y-58784611D01*
X190592153Y-58784611D02*
X190592153Y-58927468D01*
X190592153Y-58927468D02*
X191306438Y-59070325D01*
X190163581Y-58570325D02*
X189592153Y-58570325D01*
X189949296Y-58070325D02*
X189949296Y-59356039D01*
X189949296Y-59356039D02*
X189877867Y-59498897D01*
X189877867Y-59498897D02*
X189735010Y-59570325D01*
X189735010Y-59570325D02*
X189592153Y-59570325D01*
X187092153Y-59427468D02*
X187163581Y-59498897D01*
X187163581Y-59498897D02*
X187377867Y-59570325D01*
X187377867Y-59570325D02*
X187520724Y-59570325D01*
X187520724Y-59570325D02*
X187735010Y-59498897D01*
X187735010Y-59498897D02*
X187877867Y-59356039D01*
X187877867Y-59356039D02*
X187949296Y-59213182D01*
X187949296Y-59213182D02*
X188020724Y-58927468D01*
X188020724Y-58927468D02*
X188020724Y-58713182D01*
X188020724Y-58713182D02*
X187949296Y-58427468D01*
X187949296Y-58427468D02*
X187877867Y-58284611D01*
X187877867Y-58284611D02*
X187735010Y-58141754D01*
X187735010Y-58141754D02*
X187520724Y-58070325D01*
X187520724Y-58070325D02*
X187377867Y-58070325D01*
X187377867Y-58070325D02*
X187163581Y-58141754D01*
X187163581Y-58141754D02*
X187092153Y-58213182D01*
X186235010Y-59570325D02*
X186377867Y-59498897D01*
X186377867Y-59498897D02*
X186449296Y-59356039D01*
X186449296Y-59356039D02*
X186449296Y-58070325D01*
X185449296Y-59570325D02*
X185592153Y-59498897D01*
X185592153Y-59498897D02*
X185663582Y-59427468D01*
X185663582Y-59427468D02*
X185735010Y-59284611D01*
X185735010Y-59284611D02*
X185735010Y-58856039D01*
X185735010Y-58856039D02*
X185663582Y-58713182D01*
X185663582Y-58713182D02*
X185592153Y-58641754D01*
X185592153Y-58641754D02*
X185449296Y-58570325D01*
X185449296Y-58570325D02*
X185235010Y-58570325D01*
X185235010Y-58570325D02*
X185092153Y-58641754D01*
X185092153Y-58641754D02*
X185020725Y-58713182D01*
X185020725Y-58713182D02*
X184949296Y-58856039D01*
X184949296Y-58856039D02*
X184949296Y-59284611D01*
X184949296Y-59284611D02*
X185020725Y-59427468D01*
X185020725Y-59427468D02*
X185092153Y-59498897D01*
X185092153Y-59498897D02*
X185235010Y-59570325D01*
X185235010Y-59570325D02*
X185449296Y-59570325D01*
X183663582Y-59498897D02*
X183806439Y-59570325D01*
X183806439Y-59570325D02*
X184092153Y-59570325D01*
X184092153Y-59570325D02*
X184235010Y-59498897D01*
X184235010Y-59498897D02*
X184306439Y-59427468D01*
X184306439Y-59427468D02*
X184377867Y-59284611D01*
X184377867Y-59284611D02*
X184377867Y-58856039D01*
X184377867Y-58856039D02*
X184306439Y-58713182D01*
X184306439Y-58713182D02*
X184235010Y-58641754D01*
X184235010Y-58641754D02*
X184092153Y-58570325D01*
X184092153Y-58570325D02*
X183806439Y-58570325D01*
X183806439Y-58570325D02*
X183663582Y-58641754D01*
X183020725Y-59570325D02*
X183020725Y-58070325D01*
X182877868Y-58998897D02*
X182449296Y-59570325D01*
X182449296Y-58570325D02*
X183020725Y-59141754D01*
D10*
X175103000Y-117025000D02*
X175103000Y-59025000D01*
X178603000Y-55525000D02*
X201603000Y-55525000D01*
X205103000Y-59025000D02*
X205103000Y-117025000D01*
X201603000Y-120525000D02*
X178603000Y-120525000D01*
X178603000Y-55525000D02*
G75*
G03*
X175103000Y-59025000I-1J-3499999D01*
G01*
X201603000Y-120525000D02*
G75*
G03*
X205103000Y-117025000I0J3500000D01*
G01*
X205103000Y-59025000D02*
G75*
G03*
X201603000Y-55525000I-3500000J0D01*
G01*
X175103000Y-117025000D02*
G75*
G03*
X178603000Y-120525000I3499999J-1D01*
G01*
%LPC*%
D12*
X100330000Y-58420000D03*
D13*
X100330000Y-60960000D03*
X100330000Y-63500000D03*
X100330000Y-66040000D03*
X100330000Y-68580000D03*
X100330000Y-71120000D03*
X100330000Y-73660000D03*
X100330000Y-76200000D03*
X100330000Y-78740000D03*
X100330000Y-81280000D03*
X107950000Y-81280000D03*
X107950000Y-78740000D03*
X107950000Y-76200000D03*
X107950000Y-73660000D03*
X107950000Y-71120000D03*
X107950000Y-68580000D03*
X107950000Y-66040000D03*
X107950000Y-63500000D03*
X107950000Y-60960000D03*
X107950000Y-58420000D03*
D12*
X85090000Y-58420000D03*
D13*
X85090000Y-60960000D03*
X85090000Y-63500000D03*
X85090000Y-66040000D03*
X85090000Y-68580000D03*
X85090000Y-71120000D03*
X85090000Y-73660000D03*
X85090000Y-76200000D03*
X85090000Y-78740000D03*
X85090000Y-81280000D03*
X92710000Y-81280000D03*
X92710000Y-78740000D03*
X92710000Y-76200000D03*
X92710000Y-73660000D03*
X92710000Y-71120000D03*
X92710000Y-68580000D03*
X92710000Y-66040000D03*
X92710000Y-63500000D03*
X92710000Y-60960000D03*
X92710000Y-58420000D03*
D14*
X178541500Y-105065000D03*
D13*
X188701500Y-105065000D03*
D14*
X188701500Y-107605000D03*
D13*
X178541500Y-107605000D03*
D14*
X178541500Y-110145000D03*
D13*
X188701500Y-110145000D03*
D14*
X178541500Y-102525000D03*
D13*
X188701500Y-102525000D03*
D14*
X182505500Y-74587000D03*
D13*
X182505500Y-64427000D03*
D14*
X171728000Y-64135000D03*
D13*
X161568000Y-64135000D03*
D14*
X162920500Y-120015000D03*
D13*
X162920500Y-130175000D03*
D14*
X143153000Y-74295000D03*
D13*
X132993000Y-74295000D03*
D14*
X171728000Y-81915000D03*
D13*
X161568000Y-81915000D03*
D14*
X185807500Y-74587000D03*
D13*
X185807500Y-64427000D03*
D14*
X132993000Y-88265000D03*
D13*
X122833000Y-88265000D03*
D14*
X132993000Y-61595000D03*
D13*
X143153000Y-61595000D03*
D14*
X143153000Y-69215000D03*
D13*
X132993000Y-69215000D03*
D14*
X143153000Y-79375000D03*
D13*
X132993000Y-79375000D03*
D14*
X132993000Y-81915000D03*
D13*
X143153000Y-81915000D03*
D14*
X143153000Y-76835000D03*
D13*
X132993000Y-76835000D03*
D14*
X146383000Y-114935000D03*
D13*
X146383000Y-125095000D03*
D14*
X143153000Y-66675000D03*
D13*
X132993000Y-66675000D03*
D14*
X132993000Y-84455000D03*
D13*
X143153000Y-84455000D03*
D14*
X147828000Y-74295000D03*
D13*
X147828000Y-84455000D03*
D14*
X143153000Y-71755000D03*
D13*
X132993000Y-71755000D03*
D14*
X171728000Y-71755000D03*
D13*
X161568000Y-71755000D03*
D14*
X143153000Y-64135000D03*
D13*
X132993000Y-64135000D03*
D14*
X171728000Y-84455000D03*
D13*
X161568000Y-84455000D03*
D14*
X171728000Y-66675000D03*
D13*
X161568000Y-66675000D03*
D14*
X161568000Y-69215000D03*
D13*
X171728000Y-69215000D03*
D14*
X132993000Y-90805000D03*
D13*
X122833000Y-90805000D03*
D14*
X171728000Y-76835000D03*
D13*
X161568000Y-76835000D03*
D14*
X171728000Y-74295000D03*
D13*
X161568000Y-74295000D03*
D14*
X159258000Y-120015000D03*
D13*
X159258000Y-130175000D03*
D14*
X171728000Y-79375000D03*
D13*
X161568000Y-79375000D03*
D14*
X91440000Y-55245000D03*
X86440000Y-55245000D03*
X106680000Y-55245000D03*
X101680000Y-55245000D03*
X99060000Y-84328000D03*
X94060000Y-84328000D03*
D15*
X193273500Y-102525000D03*
D16*
X195813500Y-102525000D03*
X193273500Y-105065000D03*
X195813500Y-105065000D03*
X193273500Y-107605000D03*
X195813500Y-107605000D03*
D14*
X185018500Y-77208000D03*
X180018500Y-77208000D03*
D12*
X178668500Y-80383000D03*
D13*
X178668500Y-82923000D03*
X178668500Y-85463000D03*
X178668500Y-88003000D03*
X186288500Y-88003000D03*
X186288500Y-85463000D03*
X186288500Y-82923000D03*
X186288500Y-80383000D03*
D12*
X189209500Y-80383000D03*
D13*
X189209500Y-82923000D03*
X189209500Y-85463000D03*
X189209500Y-88003000D03*
X196829500Y-88003000D03*
X196829500Y-85463000D03*
X196829500Y-82923000D03*
X196829500Y-80383000D03*
D15*
X190225500Y-69588000D03*
D16*
X192765500Y-69588000D03*
X190225500Y-72128000D03*
X192765500Y-72128000D03*
X190225500Y-74668000D03*
X192765500Y-74668000D03*
D15*
X193268500Y-93078000D03*
D16*
X195808500Y-93078000D03*
X193268500Y-95618000D03*
X195808500Y-95618000D03*
D15*
X178033500Y-68445000D03*
D16*
X178033500Y-70985000D03*
D15*
X183748500Y-93083000D03*
D16*
X181208500Y-93083000D03*
X178668500Y-93083000D03*
D12*
X151003000Y-69215000D03*
D13*
X151003000Y-71755000D03*
X151003000Y-74295000D03*
X151003000Y-76835000D03*
X151003000Y-79375000D03*
X151003000Y-81915000D03*
X151003000Y-84455000D03*
X158623000Y-84455000D03*
X158623000Y-81915000D03*
X158623000Y-79375000D03*
X158623000Y-76835000D03*
X158623000Y-74295000D03*
X158623000Y-71755000D03*
X158623000Y-69215000D03*
D17*
X70104000Y-144780000D03*
X70104000Y-55880000D03*
D18*
X72644000Y-139700000D03*
D19*
X72644000Y-137160000D03*
X72644000Y-134620000D03*
X72644000Y-132080000D03*
X72644000Y-129540000D03*
X72644000Y-127000000D03*
X72644000Y-124460000D03*
X72644000Y-121920000D03*
X72644000Y-119380000D03*
X72644000Y-116840000D03*
X72644000Y-114300000D03*
X72644000Y-111760000D03*
X72644000Y-109220000D03*
X72644000Y-106680000D03*
X72644000Y-104140000D03*
X72644000Y-101600000D03*
X72644000Y-99060000D03*
X72644000Y-96520000D03*
X72644000Y-93980000D03*
X72644000Y-91440000D03*
X72644000Y-88900000D03*
X72644000Y-86360000D03*
X72644000Y-83820000D03*
X72644000Y-81280000D03*
X72644000Y-78740000D03*
X72644000Y-76200000D03*
X72644000Y-73660000D03*
X72644000Y-71120000D03*
X72644000Y-68580000D03*
X72644000Y-66040000D03*
X72644000Y-63500000D03*
X72644000Y-60960000D03*
X77724000Y-139700000D03*
X77724000Y-137160000D03*
X77724000Y-134620000D03*
X77724000Y-132080000D03*
X77724000Y-129540000D03*
X77724000Y-127000000D03*
X77724000Y-124460000D03*
X77724000Y-121920000D03*
X77724000Y-119380000D03*
X77724000Y-116840000D03*
X77724000Y-114300000D03*
X77724000Y-111760000D03*
X77724000Y-109220000D03*
X77724000Y-106680000D03*
X77724000Y-104140000D03*
X77724000Y-101600000D03*
X77724000Y-99060000D03*
X77724000Y-96520000D03*
X77724000Y-93980000D03*
X77724000Y-91440000D03*
X77724000Y-88900000D03*
X77724000Y-86360000D03*
X77724000Y-83820000D03*
X77724000Y-81280000D03*
X77724000Y-78740000D03*
X77724000Y-76200000D03*
X77724000Y-73660000D03*
X77724000Y-71120000D03*
X77724000Y-68580000D03*
X77724000Y-66040000D03*
X77724000Y-63500000D03*
X77724000Y-60960000D03*
D14*
X129358000Y-132715000D03*
X134358000Y-132715000D03*
D12*
X128603000Y-95885000D03*
D13*
X128603000Y-98425000D03*
X128603000Y-100965000D03*
X128603000Y-103505000D03*
X128603000Y-106045000D03*
X128603000Y-108585000D03*
X128603000Y-111125000D03*
X128603000Y-113665000D03*
X128603000Y-116205000D03*
X128603000Y-118745000D03*
X128603000Y-121285000D03*
X128603000Y-123825000D03*
X128603000Y-126365000D03*
X128603000Y-128905000D03*
X143843000Y-128905000D03*
X143843000Y-126365000D03*
X143843000Y-123825000D03*
X143843000Y-121285000D03*
X143843000Y-118745000D03*
X143843000Y-116205000D03*
X143843000Y-113665000D03*
X143843000Y-111125000D03*
X143843000Y-108585000D03*
X143843000Y-106045000D03*
X143843000Y-103505000D03*
X143843000Y-100965000D03*
X143843000Y-98425000D03*
X143843000Y-95885000D03*
D14*
X146328000Y-132715000D03*
X146328000Y-131445000D03*
X146328000Y-128905000D03*
X146328000Y-127715000D03*
X126008000Y-58420000D03*
X131008000Y-58420000D03*
D15*
X125603000Y-95885000D03*
D16*
X125603000Y-98425000D03*
X125603000Y-100965000D03*
X125603000Y-103505000D03*
X125603000Y-106045000D03*
X125603000Y-108585000D03*
X125603000Y-111125000D03*
X125603000Y-113665000D03*
X125603000Y-116205000D03*
X125603000Y-118745000D03*
X125603000Y-121285000D03*
X125603000Y-123825000D03*
X125603000Y-126365000D03*
X125603000Y-128905000D03*
X125603000Y-131445000D03*
X125603000Y-133985000D03*
X125603000Y-136525000D03*
D20*
X178603000Y-117025000D03*
X201603000Y-117025000D03*
X201603000Y-59025000D03*
X178603000Y-59025000D03*
D15*
X200333000Y-112155000D03*
D16*
X202873000Y-112155000D03*
X200333000Y-109615000D03*
X202873000Y-109615000D03*
X200333000Y-107075000D03*
X202873000Y-107075000D03*
X200333000Y-104535000D03*
X202873000Y-104535000D03*
X200333000Y-101995000D03*
X202873000Y-101995000D03*
X200333000Y-99455000D03*
X202873000Y-99455000D03*
X200333000Y-96915000D03*
X202873000Y-96915000D03*
X200333000Y-94375000D03*
X202873000Y-94375000D03*
X200333000Y-91835000D03*
X202873000Y-91835000D03*
X200333000Y-89295000D03*
X202873000Y-89295000D03*
X200333000Y-86755000D03*
X202873000Y-86755000D03*
X200333000Y-84215000D03*
X202873000Y-84215000D03*
X200333000Y-81675000D03*
X202873000Y-81675000D03*
X200333000Y-79135000D03*
X202873000Y-79135000D03*
X200333000Y-76595000D03*
X202873000Y-76595000D03*
X200333000Y-74055000D03*
X202873000Y-74055000D03*
X200333000Y-71515000D03*
X202873000Y-71515000D03*
X200333000Y-68975000D03*
X202873000Y-68975000D03*
X200333000Y-66435000D03*
X202873000Y-66435000D03*
X200333000Y-63895000D03*
X202873000Y-63895000D03*
D14*
X155393000Y-88011000D03*
X150393000Y-88011000D03*
D12*
X121563000Y-64135000D03*
D13*
X121563000Y-66675000D03*
X121563000Y-69215000D03*
X121563000Y-71755000D03*
X121563000Y-74295000D03*
X121563000Y-76835000D03*
X121563000Y-79375000D03*
X129183000Y-79375000D03*
X129183000Y-76835000D03*
X129183000Y-74295000D03*
X129183000Y-71755000D03*
X129183000Y-69215000D03*
X129183000Y-66675000D03*
X129183000Y-64135000D03*
D21*
X218442800Y-114433800D03*
X218442800Y-103003800D03*
D15*
X214630000Y-105466000D03*
D22*
X214630000Y-103046000D03*
X224630000Y-108046000D03*
D16*
X219710000Y-108006000D03*
D22*
X224630000Y-115546000D03*
X214630000Y-110546000D03*
D23*
X221492800Y-100948800D03*
D22*
X224630000Y-105546000D03*
D16*
X217170000Y-108006000D03*
D22*
X224630000Y-113046000D03*
D23*
X221492800Y-116488800D03*
D16*
X214630000Y-115626000D03*
D22*
X214630000Y-118046000D03*
D16*
X214630000Y-108006000D03*
D22*
X212130000Y-105546000D03*
X212130000Y-115546000D03*
D16*
X214630000Y-113086000D03*
X217170000Y-110546000D03*
X219710000Y-110546000D03*
D24*
X212092800Y-113163800D03*
D25*
X209552800Y-111893800D03*
X212092800Y-110623800D03*
X209552800Y-109353800D03*
X212092800Y-108083800D03*
X209552800Y-106813800D03*
X209552800Y-104273800D03*
D12*
X109474000Y-143510000D03*
D14*
X109474000Y-141510000D03*
D21*
X218442800Y-134433800D03*
X218442800Y-123003800D03*
D22*
X214630000Y-123046000D03*
D15*
X214630000Y-125466000D03*
D22*
X224630000Y-125546000D03*
D16*
X217170000Y-128006000D03*
D22*
X224630000Y-135546000D03*
X214630000Y-130546000D03*
D23*
X221492800Y-120948800D03*
D22*
X224630000Y-133046000D03*
D23*
X221492800Y-136488800D03*
D16*
X219710000Y-128006000D03*
D22*
X224630000Y-128046000D03*
D16*
X214630000Y-135626000D03*
D22*
X214630000Y-138046000D03*
D16*
X214630000Y-128006000D03*
D22*
X212130000Y-125546000D03*
X212130000Y-135546000D03*
D16*
X214630000Y-133086000D03*
X217170000Y-130546000D03*
X219710000Y-130546000D03*
D24*
X212092800Y-133163800D03*
D25*
X209552800Y-131893800D03*
X212092800Y-130623800D03*
X209552800Y-129353800D03*
X212092800Y-128083800D03*
X209552800Y-126813800D03*
X209552800Y-124273800D03*
D14*
X112014000Y-86995000D03*
X107014000Y-86995000D03*
D20*
X170603000Y-117025000D03*
X170603000Y-59025000D03*
D26*
X223830000Y-54046000D03*
D21*
X218442800Y-94433800D03*
X218442800Y-83003800D03*
D15*
X214630000Y-85466000D03*
D22*
X214630000Y-83046000D03*
D16*
X217170000Y-88006000D03*
X219710000Y-88006000D03*
D23*
X221492800Y-96488800D03*
D22*
X224630000Y-93046000D03*
X214630000Y-90546000D03*
X224630000Y-88046000D03*
X224630000Y-95546000D03*
X224630000Y-85546000D03*
D23*
X221492800Y-80948800D03*
D22*
X214630000Y-98046000D03*
D16*
X214630000Y-95626000D03*
D22*
X212130000Y-85546000D03*
D16*
X214630000Y-88006000D03*
D22*
X212130000Y-95546000D03*
D16*
X214630000Y-93086000D03*
X217170000Y-90546000D03*
X219710000Y-90546000D03*
D24*
X212092800Y-93163800D03*
D25*
X209552800Y-91893800D03*
X212092800Y-90623800D03*
X209552800Y-89353800D03*
X212092800Y-88083800D03*
X209552800Y-86813800D03*
X209552800Y-84273800D03*
D21*
X218442800Y-63003800D03*
X218442800Y-74433800D03*
D15*
X214630000Y-65466000D03*
D22*
X214630000Y-63046000D03*
D16*
X217170000Y-68006000D03*
D23*
X221492800Y-76488800D03*
D22*
X224630000Y-73046000D03*
X224630000Y-75546000D03*
X224630000Y-65546000D03*
D23*
X221492800Y-60948800D03*
D22*
X224630000Y-68046000D03*
D16*
X219710000Y-68006000D03*
D22*
X214630000Y-70546000D03*
D16*
X214630000Y-75626000D03*
D22*
X214630000Y-78046000D03*
D16*
X214630000Y-68006000D03*
D22*
X212130000Y-65546000D03*
X212130000Y-75546000D03*
D16*
X214630000Y-73086000D03*
X217170000Y-70546000D03*
X219710000Y-70546000D03*
D24*
X212092800Y-73163800D03*
D25*
X209552800Y-71893800D03*
X212092800Y-70623800D03*
X209552800Y-69353800D03*
X212092800Y-68083800D03*
X209552800Y-66813800D03*
X209552800Y-64273800D03*
D14*
X112268000Y-114935000D03*
X107268000Y-114935000D03*
D27*
X148463000Y-66405000D03*
D20*
X121603000Y-117025000D03*
D12*
X105664000Y-90170000D03*
D13*
X105664000Y-92710000D03*
X105664000Y-95250000D03*
X105664000Y-97790000D03*
X105664000Y-100330000D03*
X105664000Y-102870000D03*
X105664000Y-105410000D03*
X105664000Y-107950000D03*
X113284000Y-107950000D03*
X113284000Y-105410000D03*
X113284000Y-102870000D03*
X113284000Y-100330000D03*
X113284000Y-97790000D03*
X113284000Y-95250000D03*
X113284000Y-92710000D03*
X113284000Y-90170000D03*
D14*
X163013000Y-88011000D03*
X168013000Y-88011000D03*
X126643000Y-84455000D03*
X127913000Y-84455000D03*
X122913000Y-84455000D03*
X124103000Y-84455000D03*
X155393000Y-111315000D03*
X150393000Y-111315000D03*
D12*
X161568000Y-91440000D03*
D13*
X161568000Y-93980000D03*
X161568000Y-96520000D03*
X161568000Y-99060000D03*
X161568000Y-101600000D03*
X161568000Y-104140000D03*
X161568000Y-106680000D03*
X161568000Y-109220000D03*
X169188000Y-109220000D03*
X169188000Y-106680000D03*
X169188000Y-104140000D03*
X169188000Y-101600000D03*
X169188000Y-99060000D03*
X169188000Y-96520000D03*
X169188000Y-93980000D03*
X169188000Y-91440000D03*
D27*
X158603000Y-137515000D03*
D20*
X121603000Y-59025000D03*
D12*
X85090000Y-87630000D03*
D13*
X85090000Y-90170000D03*
X85090000Y-92710000D03*
X85090000Y-95250000D03*
X85090000Y-97790000D03*
X85090000Y-100330000D03*
X85090000Y-102870000D03*
X85090000Y-105410000D03*
X85090000Y-107950000D03*
X85090000Y-110490000D03*
X85090000Y-113030000D03*
X85090000Y-115570000D03*
X85090000Y-118110000D03*
X85090000Y-120650000D03*
X85090000Y-123190000D03*
X85090000Y-125730000D03*
X100330000Y-125730000D03*
X100330000Y-123190000D03*
X100330000Y-120650000D03*
X100330000Y-118110000D03*
X100330000Y-115570000D03*
X100330000Y-113030000D03*
X100330000Y-110490000D03*
X100330000Y-107950000D03*
X100330000Y-105410000D03*
X100330000Y-102870000D03*
X100330000Y-100330000D03*
X100330000Y-97790000D03*
X100330000Y-95250000D03*
X100330000Y-92710000D03*
X100330000Y-90170000D03*
X100330000Y-87630000D03*
D12*
X159028000Y-60960000D03*
D14*
X159028000Y-58960000D03*
X157933000Y-65405000D03*
X152933000Y-65405000D03*
D15*
X168783000Y-121285000D03*
D16*
X168783000Y-123825000D03*
X168783000Y-126365000D03*
X168783000Y-128905000D03*
X168783000Y-131445000D03*
D26*
X223830000Y-147046000D03*
D12*
X162838000Y-116205000D03*
D14*
X162838000Y-113705000D03*
D12*
X148868000Y-91440000D03*
D13*
X148868000Y-93980000D03*
X148868000Y-96520000D03*
X148868000Y-99060000D03*
X148868000Y-101600000D03*
X148868000Y-104140000D03*
X148868000Y-106680000D03*
X156488000Y-106680000D03*
X156488000Y-104140000D03*
X156488000Y-101600000D03*
X156488000Y-99060000D03*
X156488000Y-96520000D03*
X156488000Y-93980000D03*
X156488000Y-91440000D03*
D12*
X105664000Y-118125000D03*
D13*
X105664000Y-120665000D03*
X105664000Y-123205000D03*
X105664000Y-125745000D03*
X105664000Y-128285000D03*
X105664000Y-130825000D03*
X105664000Y-133365000D03*
X105664000Y-135905000D03*
X113284000Y-135905000D03*
X113284000Y-133365000D03*
X113284000Y-130825000D03*
X113284000Y-128285000D03*
X113284000Y-125745000D03*
X113284000Y-123205000D03*
X113284000Y-120665000D03*
X113284000Y-118125000D03*
D12*
X140208000Y-136525000D03*
D14*
X140208000Y-134525000D03*
D12*
X148868000Y-114935000D03*
D13*
X148868000Y-117475000D03*
X148868000Y-120015000D03*
X148868000Y-122555000D03*
X148868000Y-125095000D03*
X148868000Y-127635000D03*
X148868000Y-130175000D03*
X148868000Y-132715000D03*
X156488000Y-132715000D03*
X156488000Y-130175000D03*
X156488000Y-127635000D03*
X156488000Y-125095000D03*
X156488000Y-122555000D03*
X156488000Y-120015000D03*
X156488000Y-117475000D03*
X156488000Y-114935000D03*
%LPD*%
M02*
