M48
; DRILL file {KiCad 9.0.5} date 2025-10-14T22:50:31+0100
; FORMAT={-:-/ absolute / metric / decimal}
; #@! TF.CreationDate,2025-10-14T22:50:31+01:00
; #@! TF.GenerationSoftware,Kicad,Pcbnew,9.0.5
; #@! TF.FileFunction,MixedPlating,1,2
FMAT,2
METRIC
; #@! TA.AperFunction,Plated,PTH,ViaDrill
T1C0.400
; #@! TA.AperFunction,Plated,PTH,ComponentDrill
T2C0.800
; #@! TA.AperFunction,Plated,PTH,ComponentDrill
T3C0.900
; #@! TA.AperFunction,Plated,PTH,ComponentDrill
T4C1.000
; #@! TA.AperFunction,Plated,PTH,ComponentDrill
T5C1.400
; #@! TA.AperFunction,Plated,PTH,ComponentDrill
T6C1.600
; #@! TA.AperFunction,NonPlated,NPTH,ComponentDrill
T7C2.700
; #@! TA.AperFunction,NonPlated,NPTH,ComponentDrill
T8C2.850
; #@! TA.AperFunction,NonPlated,NPTH,ComponentDrill
T9C3.250
; #@! TA.AperFunction,NonPlated,NPTH,ComponentDrill
T10C4.000
%
G90
G05
T1
X78.74Y-105.41
X79.375Y-90.17
X79.375Y-111.76
X79.375Y-113.665
X80.645Y-118.11
X81.28Y-115.57
X81.915Y-113.03
X82.304Y-62.23
X82.304Y-95.25
X82.55Y-110.49
X87.533Y-111.76
X87.884Y-116.84
X88.138Y-119.38
X88.646Y-123.19
X88.9Y-60.96
X89.535Y-62.865
X89.535Y-65.405
X89.916Y-125.73
X90.17Y-67.31
X90.424Y-123.19
X90.678Y-120.65
X90.805Y-69.85
X90.805Y-72.39
X91.186Y-118.11
X91.44Y-74.93
X91.51Y-77.47
X91.694Y-115.57
X91.959Y-100.33
X92.409Y-102.87
X92.593Y-121.803
X93.218Y-124.46
X95.25Y-99.06
X95.25Y-109.22
X95.504Y-95.25
X95.885Y-68.707
X95.885Y-90.17
X95.885Y-93.853
X96.51Y-92.71
X97.155Y-72.39
X97.79Y-106.68
X97.79Y-109.22
X97.79Y-113.03
X98.425Y-114.935
X98.581Y-62.277
X98.581Y-71.247
X100.838Y-106.68
X101.425Y-99.06
X101.795Y-120.65
X101.796Y-128.27
X102.079Y-114.3
X102.245Y-129.54
X102.674Y-92.964
X102.674Y-94.742
X102.87Y-132.08
X103.495Y-130.81
X103.515Y-118.11
X103.515Y-119.38
X103.515Y-122.544
X108.849Y-92.71
X108.966Y-100.33
X109.855Y-100.33
X110.49Y-104.14
X111.506Y-110.49
X116.053Y-134.635
X116.967Y-106.045
X117.024Y-110.109
X117.031Y-120.777
X117.539Y-106.68
X117.636Y-116.84
X117.729Y-113.665
X118.301Y-119.395
X118.301Y-105.818
X118.491Y-113.127
X122.936Y-126.84
X123.584Y-124.475
X123.803Y-109.95
X124.103Y-75.565
X126.686Y-61.003
X130.803Y-104.744
X130.803Y-116.205
X131.342Y-102.362
X131.469Y-109.855
X132.358Y-95.885
X132.358Y-98.425
X132.358Y-104.14
X135.763Y-107.315
X136.271Y-100.965
X137.438Y-65.405
X137.668Y-75.565
X141.423Y-106.045
X146.328Y-80.01
X146.963Y-70.485
X152.218Y-130.365
X153.293Y-84.205
X153.333Y-113.065
X154.123Y-99.885
X154.758Y-77.025
X166.648Y-68.58
X167.918Y-113.03
X172.363Y-88.265
X182.505Y-71.793
X192.506Y-117.462
T2
X85.09Y-58.42
X85.09Y-60.96
X85.09Y-63.5
X85.09Y-66.04
X85.09Y-68.58
X85.09Y-71.12
X85.09Y-73.66
X85.09Y-76.2
X85.09Y-78.74
X85.09Y-81.28
X85.09Y-87.63
X85.09Y-90.17
X85.09Y-92.71
X85.09Y-95.25
X85.09Y-97.79
X85.09Y-100.33
X85.09Y-102.87
X85.09Y-105.41
X85.09Y-107.95
X85.09Y-110.49
X85.09Y-113.03
X85.09Y-115.57
X85.09Y-118.11
X85.09Y-120.65
X85.09Y-123.19
X85.09Y-125.73
X86.44Y-55.245
X91.44Y-55.245
X92.71Y-58.42
X92.71Y-60.96
X92.71Y-63.5
X92.71Y-66.04
X92.71Y-68.58
X92.71Y-71.12
X92.71Y-73.66
X92.71Y-76.2
X92.71Y-78.74
X92.71Y-81.28
X94.06Y-84.328
X99.06Y-84.328
X100.33Y-58.42
X100.33Y-60.96
X100.33Y-63.5
X100.33Y-66.04
X100.33Y-68.58
X100.33Y-71.12
X100.33Y-73.66
X100.33Y-76.2
X100.33Y-78.74
X100.33Y-81.28
X100.33Y-87.63
X100.33Y-90.17
X100.33Y-92.71
X100.33Y-95.25
X100.33Y-97.79
X100.33Y-100.33
X100.33Y-102.87
X100.33Y-105.41
X100.33Y-107.95
X100.33Y-110.49
X100.33Y-113.03
X100.33Y-115.57
X100.33Y-118.11
X100.33Y-120.65
X100.33Y-123.19
X100.33Y-125.73
X101.68Y-55.245
X105.664Y-90.17
X105.664Y-92.71
X105.664Y-95.25
X105.664Y-97.79
X105.664Y-100.33
X105.664Y-102.87
X105.664Y-105.41
X105.664Y-107.95
X105.664Y-118.125
X105.664Y-120.665
X105.664Y-123.205
X105.664Y-125.745
X105.664Y-128.285
X105.664Y-130.825
X105.664Y-133.365
X105.664Y-135.905
X106.68Y-55.245
X107.014Y-86.995
X107.268Y-114.935
X107.95Y-58.42
X107.95Y-60.96
X107.95Y-63.5
X107.95Y-66.04
X107.95Y-68.58
X107.95Y-71.12
X107.95Y-73.66
X107.95Y-76.2
X107.95Y-78.74
X107.95Y-81.28
X109.474Y-141.51
X109.474Y-143.51
X112.014Y-86.995
X112.268Y-114.935
X113.284Y-90.17
X113.284Y-92.71
X113.284Y-95.25
X113.284Y-97.79
X113.284Y-100.33
X113.284Y-102.87
X113.284Y-105.41
X113.284Y-107.95
X113.284Y-118.125
X113.284Y-120.665
X113.284Y-123.205
X113.284Y-125.745
X113.284Y-128.285
X113.284Y-130.825
X113.284Y-133.365
X113.284Y-135.905
X121.563Y-64.135
X121.563Y-66.675
X121.563Y-69.215
X121.563Y-71.755
X121.563Y-74.295
X121.563Y-76.835
X121.563Y-79.375
X122.833Y-88.265
X122.833Y-90.805
X122.913Y-84.455
X124.103Y-84.455
X125.603Y-142.557
X125.603Y-145.097
X125.603Y-147.954
X126.008Y-58.42
X126.643Y-84.455
X127.913Y-84.455
X128.603Y-95.885
X128.603Y-98.425
X128.603Y-100.965
X128.603Y-103.505
X128.603Y-106.045
X128.603Y-108.585
X128.603Y-111.125
X128.603Y-113.665
X128.603Y-116.205
X128.603Y-118.745
X128.603Y-121.285
X128.603Y-123.825
X128.603Y-126.365
X128.603Y-128.905
X129.183Y-64.135
X129.183Y-66.675
X129.183Y-69.215
X129.183Y-71.755
X129.183Y-74.295
X129.183Y-76.835
X129.183Y-79.375
X129.358Y-132.715
X131.008Y-58.42
X132.993Y-61.595
X132.993Y-64.135
X132.993Y-66.675
X132.993Y-69.215
X132.993Y-71.755
X132.993Y-74.295
X132.993Y-76.835
X132.993Y-79.375
X132.993Y-81.915
X132.993Y-84.455
X132.993Y-88.265
X132.993Y-90.805
X134.358Y-132.715
X135.763Y-142.557
X135.763Y-145.097
X135.763Y-147.954
X140.208Y-134.525
X140.208Y-136.525
X143.153Y-61.595
X143.153Y-64.135
X143.153Y-66.675
X143.153Y-69.215
X143.153Y-71.755
X143.153Y-74.295
X143.153Y-76.835
X143.153Y-79.375
X143.153Y-81.915
X143.153Y-84.455
X143.843Y-95.885
X143.843Y-98.425
X143.843Y-100.965
X143.843Y-103.505
X143.843Y-106.045
X143.843Y-108.585
X143.843Y-111.125
X143.843Y-113.665
X143.843Y-116.205
X143.843Y-118.745
X143.843Y-121.285
X143.843Y-123.825
X143.843Y-126.365
X143.843Y-128.905
X146.328Y-127.715
X146.328Y-128.905
X146.328Y-131.445
X146.328Y-132.715
X146.383Y-114.935
X146.383Y-125.095
X147.828Y-74.295
X147.828Y-84.455
X148.868Y-91.44
X148.868Y-93.98
X148.868Y-96.52
X148.868Y-99.06
X148.868Y-101.6
X148.868Y-104.14
X148.868Y-106.68
X148.868Y-114.935
X148.868Y-117.475
X148.868Y-120.015
X148.868Y-122.555
X148.868Y-125.095
X148.868Y-127.635
X148.868Y-130.175
X148.868Y-132.715
X150.393Y-88.011
X150.393Y-111.315
X151.003Y-69.215
X151.003Y-71.755
X151.003Y-74.295
X151.003Y-76.835
X151.003Y-79.375
X151.003Y-81.915
X151.003Y-84.455
X152.933Y-65.405
X155.393Y-88.011
X155.393Y-111.315
X156.488Y-91.44
X156.488Y-93.98
X156.488Y-96.52
X156.488Y-99.06
X156.488Y-101.6
X156.488Y-104.14
X156.488Y-106.68
X156.488Y-114.935
X156.488Y-117.475
X156.488Y-120.015
X156.488Y-122.555
X156.488Y-125.095
X156.488Y-127.635
X156.488Y-130.175
X156.488Y-132.715
X157.933Y-65.405
X158.623Y-69.215
X158.623Y-71.755
X158.623Y-74.295
X158.623Y-76.835
X158.623Y-79.375
X158.623Y-81.915
X158.623Y-84.455
X159.028Y-58.96
X159.028Y-60.96
X159.258Y-120.015
X159.258Y-130.175
X161.568Y-64.135
X161.568Y-66.675
X161.568Y-69.215
X161.568Y-71.755
X161.568Y-74.295
X161.568Y-76.835
X161.568Y-79.375
X161.568Y-81.915
X161.568Y-84.455
X161.568Y-91.44
X161.568Y-93.98
X161.568Y-96.52
X161.568Y-99.06
X161.568Y-101.6
X161.568Y-104.14
X161.568Y-106.68
X161.568Y-109.22
X162.838Y-113.705
X162.838Y-116.205
X162.921Y-120.015
X162.921Y-130.175
X163.013Y-88.011
X168.013Y-88.011
X169.188Y-91.44
X169.188Y-93.98
X169.188Y-96.52
X169.188Y-99.06
X169.188Y-101.6
X169.188Y-104.14
X169.188Y-106.68
X169.188Y-109.22
X171.728Y-64.135
X171.728Y-66.675
X171.728Y-69.215
X171.728Y-71.755
X171.728Y-74.295
X171.728Y-76.835
X171.728Y-79.375
X171.728Y-81.915
X171.728Y-84.455
X178.541Y-102.525
X178.541Y-105.065
X178.541Y-107.605
X178.541Y-110.145
X178.668Y-80.383
X178.668Y-82.923
X178.668Y-85.463
X178.668Y-88.003
X180.018Y-77.208
X182.505Y-64.427
X182.505Y-74.587
X185.018Y-77.208
X185.808Y-64.427
X185.808Y-74.587
X186.288Y-80.383
X186.288Y-82.923
X186.288Y-85.463
X186.288Y-88.003
X188.701Y-102.525
X188.701Y-105.065
X188.701Y-107.605
X188.701Y-110.145
X189.209Y-80.383
X189.209Y-82.923
X189.209Y-85.463
X189.209Y-88.003
X196.829Y-80.383
X196.829Y-82.923
X196.829Y-85.463
X196.829Y-88.003
T3
X141.097Y-142.557
X141.097Y-145.097
X145.669Y-142.557
X145.669Y-145.097
X150.241Y-142.557
X150.241Y-145.097
X209.553Y-64.274
X209.553Y-66.814
X209.553Y-69.354
X209.553Y-71.894
X209.553Y-84.274
X209.553Y-86.814
X209.553Y-89.354
X209.553Y-91.894
X209.553Y-104.274
X209.553Y-106.814
X209.553Y-109.354
X209.553Y-111.894
X209.553Y-124.274
X209.553Y-126.814
X209.553Y-129.354
X209.553Y-131.894
X212.093Y-68.084
X212.093Y-70.624
X212.093Y-73.164
X212.093Y-88.084
X212.093Y-90.624
X212.093Y-93.164
X212.093Y-108.084
X212.093Y-110.624
X212.093Y-113.164
X212.093Y-128.084
X212.093Y-130.624
X212.093Y-133.164
T4
X72.644Y-60.96
X72.644Y-63.5
X72.644Y-66.04
X72.644Y-68.58
X72.644Y-71.12
X72.644Y-73.66
X72.644Y-76.2
X72.644Y-78.74
X72.644Y-81.28
X72.644Y-83.82
X72.644Y-86.36
X72.644Y-88.9
X72.644Y-91.44
X72.644Y-93.98
X72.644Y-96.52
X72.644Y-99.06
X72.644Y-101.6
X72.644Y-104.14
X72.644Y-106.68
X72.644Y-109.22
X72.644Y-111.76
X72.644Y-114.3
X72.644Y-116.84
X72.644Y-119.38
X72.644Y-121.92
X72.644Y-124.46
X72.644Y-127.0
X72.644Y-129.54
X72.644Y-132.08
X72.644Y-134.62
X72.644Y-137.16
X72.644Y-139.7
X77.724Y-60.96
X77.724Y-63.5
X77.724Y-66.04
X77.724Y-68.58
X77.724Y-71.12
X77.724Y-73.66
X77.724Y-76.2
X77.724Y-78.74
X77.724Y-81.28
X77.724Y-83.82
X77.724Y-86.36
X77.724Y-88.9
X77.724Y-91.44
X77.724Y-93.98
X77.724Y-96.52
X77.724Y-99.06
X77.724Y-101.6
X77.724Y-104.14
X77.724Y-106.68
X77.724Y-109.22
X77.724Y-111.76
X77.724Y-114.3
X77.724Y-116.84
X77.724Y-119.38
X77.724Y-121.92
X77.724Y-124.46
X77.724Y-127.0
X77.724Y-129.54
X77.724Y-132.08
X77.724Y-134.62
X77.724Y-137.16
X77.724Y-139.7
X125.603Y-95.885
X125.603Y-98.425
X125.603Y-100.965
X125.603Y-103.505
X125.603Y-106.045
X125.603Y-108.585
X125.603Y-111.125
X125.603Y-113.665
X125.603Y-116.205
X125.603Y-118.745
X125.603Y-121.285
X125.603Y-123.825
X125.603Y-126.365
X125.603Y-128.905
X125.603Y-131.445
X125.603Y-133.985
X125.603Y-136.525
X168.783Y-121.285
X168.783Y-123.825
X168.783Y-126.365
X168.783Y-128.905
X168.783Y-131.445
X178.034Y-68.445
X178.034Y-70.985
X178.668Y-93.083
X181.208Y-93.083
X183.748Y-93.083
X190.225Y-69.588
X190.225Y-72.128
X190.225Y-74.668
X192.766Y-69.588
X192.766Y-72.128
X192.766Y-74.668
X193.268Y-93.078
X193.268Y-95.618
X193.273Y-102.525
X193.273Y-105.065
X193.273Y-107.605
X195.808Y-93.078
X195.808Y-95.618
X195.814Y-102.525
X195.814Y-105.065
X195.814Y-107.605
X200.333Y-63.895
X200.333Y-66.435
X200.333Y-68.975
X200.333Y-71.515
X200.333Y-74.055
X200.333Y-76.595
X200.333Y-79.135
X200.333Y-81.675
X200.333Y-84.215
X200.333Y-86.755
X200.333Y-89.295
X200.333Y-91.835
X200.333Y-94.375
X200.333Y-96.915
X200.333Y-99.455
X200.333Y-101.995
X200.333Y-104.535
X200.333Y-107.075
X200.333Y-109.615
X200.333Y-112.155
X202.873Y-63.895
X202.873Y-66.435
X202.873Y-68.975
X202.873Y-71.515
X202.873Y-74.055
X202.873Y-76.595
X202.873Y-79.135
X202.873Y-81.675
X202.873Y-84.215
X202.873Y-86.755
X202.873Y-89.295
X202.873Y-91.835
X202.873Y-94.375
X202.873Y-96.915
X202.873Y-99.455
X202.873Y-101.995
X202.873Y-104.535
X202.873Y-107.075
X202.873Y-109.615
X202.873Y-112.155
X214.63Y-65.466
X214.63Y-68.006
X214.63Y-73.086
X214.63Y-75.626
X214.63Y-85.466
X214.63Y-88.006
X214.63Y-93.086
X214.63Y-95.626
X214.63Y-105.466
X214.63Y-108.006
X214.63Y-113.086
X214.63Y-115.626
X214.63Y-125.466
X214.63Y-128.006
X214.63Y-133.086
X214.63Y-135.626
X217.17Y-68.006
X217.17Y-70.546
X217.17Y-88.006
X217.17Y-90.546
X217.17Y-108.006
X217.17Y-110.546
X217.17Y-128.006
X217.17Y-130.546
X219.71Y-68.006
X219.71Y-70.546
X219.71Y-88.006
X219.71Y-90.546
X219.71Y-108.006
X219.71Y-110.546
X219.71Y-128.006
X219.71Y-130.546
T5
X212.13Y-65.546
X212.13Y-75.546
X212.13Y-85.546
X212.13Y-95.546
X212.13Y-105.546
X212.13Y-115.546
X212.13Y-125.546
X212.13Y-135.546
X214.63Y-63.046
X214.63Y-70.546
X214.63Y-78.046
X214.63Y-83.046
X214.63Y-90.546
X214.63Y-98.046
X214.63Y-103.046
X214.63Y-110.546
X214.63Y-118.046
X214.63Y-123.046
X214.63Y-130.546
X214.63Y-138.046
X224.63Y-65.546
X224.63Y-68.046
X224.63Y-73.046
X224.63Y-75.546
X224.63Y-85.546
X224.63Y-88.046
X224.63Y-93.046
X224.63Y-95.546
X224.63Y-105.546
X224.63Y-108.046
X224.63Y-113.046
X224.63Y-115.546
X224.63Y-125.546
X224.63Y-128.046
X224.63Y-133.046
X224.63Y-135.546
T6
X221.493Y-60.949
X221.493Y-76.489
X221.493Y-80.949
X221.493Y-96.489
X221.493Y-100.949
X221.493Y-116.489
X221.493Y-120.949
X221.493Y-136.489
T7
X121.603Y-59.025
X121.603Y-117.025
X170.603Y-59.025
X170.603Y-117.025
X178.603Y-59.025
X178.603Y-117.025
X201.603Y-59.025
X201.603Y-117.025
X223.83Y-54.046
X223.83Y-147.046
T8
X70.104Y-55.88
X70.104Y-144.78
T9
X218.443Y-63.004
X218.443Y-74.434
X218.443Y-83.004
X218.443Y-94.434
X218.443Y-103.004
X218.443Y-114.434
X218.443Y-123.004
X218.443Y-134.434
T10
X148.463Y-66.405
X158.603Y-137.515
M30
