G04 #@! TF.GenerationSoftware,KiCad,Pcbnew,7.0.7-146-g6b43bb8fe3*
G04 #@! TF.CreationDate,2023-10-07T12:16:15+01:00*
G04 #@! TF.ProjectId,podule_econet,706f6475-6c65-45f6-9563-6f6e65742e6b,03*
G04 #@! TF.SameCoordinates,Original*
G04 #@! TF.FileFunction,Other,User*
%FSLAX46Y46*%
G04 Gerber Fmt 4.6, Leading zero omitted, Abs format (unit mm)*
G04 Created by KiCad (PCBNEW 7.0.7-146-g6b43bb8fe3) date 2023-10-07 12:16:15*
%MOMM*%
%LPD*%
G01*
G04 APERTURE LIST*
%ADD10C,0.050000*%
G04 APERTURE END LIST*
D10*
X109030000Y-56870000D02*
X99230000Y-56870000D01*
X109030000Y-82820000D02*
X109030000Y-56870000D01*
X99230000Y-56870000D02*
X99230000Y-82820000D01*
X99230000Y-82820000D02*
X109030000Y-82820000D01*
X83990000Y-56870000D02*
X83990000Y-82820000D01*
X93790000Y-82820000D02*
X93790000Y-56870000D01*
X93790000Y-56870000D02*
X83990000Y-56870000D01*
X83990000Y-82820000D02*
X93790000Y-82820000D01*
X189751500Y-106565000D02*
X189751500Y-103565000D01*
X189751500Y-103565000D02*
X177491500Y-103565000D01*
X177491500Y-106565000D02*
X189751500Y-106565000D01*
X177491500Y-103565000D02*
X177491500Y-106565000D01*
X177491500Y-106105000D02*
X177491500Y-109105000D01*
X177491500Y-109105000D02*
X189751500Y-109105000D01*
X189751500Y-106105000D02*
X177491500Y-106105000D01*
X189751500Y-109105000D02*
X189751500Y-106105000D01*
X189751500Y-111645000D02*
X189751500Y-108645000D01*
X189751500Y-108645000D02*
X177491500Y-108645000D01*
X177491500Y-111645000D02*
X189751500Y-111645000D01*
X177491500Y-108645000D02*
X177491500Y-111645000D01*
X189751500Y-104025000D02*
X189751500Y-101025000D01*
X189751500Y-101025000D02*
X177491500Y-101025000D01*
X177491500Y-104025000D02*
X189751500Y-104025000D01*
X177491500Y-101025000D02*
X177491500Y-104025000D01*
X184005500Y-63377000D02*
X181005500Y-63377000D01*
X181005500Y-63377000D02*
X181005500Y-75637000D01*
X184005500Y-75637000D02*
X184005500Y-63377000D01*
X181005500Y-75637000D02*
X184005500Y-75637000D01*
X160518000Y-62635000D02*
X160518000Y-65635000D01*
X160518000Y-65635000D02*
X172778000Y-65635000D01*
X172778000Y-62635000D02*
X160518000Y-62635000D01*
X172778000Y-65635000D02*
X172778000Y-62635000D01*
X161420500Y-131225000D02*
X164420500Y-131225000D01*
X164420500Y-131225000D02*
X164420500Y-118965000D01*
X161420500Y-118965000D02*
X161420500Y-131225000D01*
X164420500Y-118965000D02*
X161420500Y-118965000D01*
X131943000Y-72795000D02*
X131943000Y-75795000D01*
X131943000Y-75795000D02*
X144203000Y-75795000D01*
X144203000Y-72795000D02*
X131943000Y-72795000D01*
X144203000Y-75795000D02*
X144203000Y-72795000D01*
X160518000Y-80415000D02*
X160518000Y-83415000D01*
X160518000Y-83415000D02*
X172778000Y-83415000D01*
X172778000Y-80415000D02*
X160518000Y-80415000D01*
X172778000Y-83415000D02*
X172778000Y-80415000D01*
X187307500Y-63377000D02*
X184307500Y-63377000D01*
X184307500Y-63377000D02*
X184307500Y-75637000D01*
X187307500Y-75637000D02*
X187307500Y-63377000D01*
X184307500Y-75637000D02*
X187307500Y-75637000D01*
X121783000Y-86765000D02*
X121783000Y-89765000D01*
X121783000Y-89765000D02*
X134043000Y-89765000D01*
X134043000Y-86765000D02*
X121783000Y-86765000D01*
X134043000Y-89765000D02*
X134043000Y-86765000D01*
X144203000Y-63095000D02*
X144203000Y-60095000D01*
X144203000Y-60095000D02*
X131943000Y-60095000D01*
X131943000Y-63095000D02*
X144203000Y-63095000D01*
X131943000Y-60095000D02*
X131943000Y-63095000D01*
X131943000Y-67715000D02*
X131943000Y-70715000D01*
X131943000Y-70715000D02*
X144203000Y-70715000D01*
X144203000Y-67715000D02*
X131943000Y-67715000D01*
X144203000Y-70715000D02*
X144203000Y-67715000D01*
X131943000Y-77875000D02*
X131943000Y-80875000D01*
X131943000Y-80875000D02*
X144203000Y-80875000D01*
X144203000Y-77875000D02*
X131943000Y-77875000D01*
X144203000Y-80875000D02*
X144203000Y-77875000D01*
X144203000Y-83415000D02*
X144203000Y-80415000D01*
X144203000Y-80415000D02*
X131943000Y-80415000D01*
X131943000Y-83415000D02*
X144203000Y-83415000D01*
X131943000Y-80415000D02*
X131943000Y-83415000D01*
X131943000Y-75335000D02*
X131943000Y-78335000D01*
X131943000Y-78335000D02*
X144203000Y-78335000D01*
X144203000Y-75335000D02*
X131943000Y-75335000D01*
X144203000Y-78335000D02*
X144203000Y-75335000D01*
X144883000Y-126145000D02*
X147883000Y-126145000D01*
X147883000Y-126145000D02*
X147883000Y-113885000D01*
X144883000Y-113885000D02*
X144883000Y-126145000D01*
X147883000Y-113885000D02*
X144883000Y-113885000D01*
X131943000Y-65175000D02*
X131943000Y-68175000D01*
X131943000Y-68175000D02*
X144203000Y-68175000D01*
X144203000Y-65175000D02*
X131943000Y-65175000D01*
X144203000Y-68175000D02*
X144203000Y-65175000D01*
X144203000Y-85955000D02*
X144203000Y-82955000D01*
X144203000Y-82955000D02*
X131943000Y-82955000D01*
X131943000Y-85955000D02*
X144203000Y-85955000D01*
X131943000Y-82955000D02*
X131943000Y-85955000D01*
X146328000Y-85505000D02*
X149328000Y-85505000D01*
X149328000Y-85505000D02*
X149328000Y-73245000D01*
X146328000Y-73245000D02*
X146328000Y-85505000D01*
X149328000Y-73245000D02*
X146328000Y-73245000D01*
X131943000Y-70255000D02*
X131943000Y-73255000D01*
X131943000Y-73255000D02*
X144203000Y-73255000D01*
X144203000Y-70255000D02*
X131943000Y-70255000D01*
X144203000Y-73255000D02*
X144203000Y-70255000D01*
X160518000Y-70255000D02*
X160518000Y-73255000D01*
X160518000Y-73255000D02*
X172778000Y-73255000D01*
X172778000Y-70255000D02*
X160518000Y-70255000D01*
X172778000Y-73255000D02*
X172778000Y-70255000D01*
X131943000Y-62635000D02*
X131943000Y-65635000D01*
X131943000Y-65635000D02*
X144203000Y-65635000D01*
X144203000Y-62635000D02*
X131943000Y-62635000D01*
X144203000Y-65635000D02*
X144203000Y-62635000D01*
X160518000Y-82955000D02*
X160518000Y-85955000D01*
X160518000Y-85955000D02*
X172778000Y-85955000D01*
X172778000Y-82955000D02*
X160518000Y-82955000D01*
X172778000Y-85955000D02*
X172778000Y-82955000D01*
X160518000Y-65175000D02*
X160518000Y-68175000D01*
X160518000Y-68175000D02*
X172778000Y-68175000D01*
X172778000Y-65175000D02*
X160518000Y-65175000D01*
X172778000Y-68175000D02*
X172778000Y-65175000D01*
X172778000Y-70715000D02*
X172778000Y-67715000D01*
X172778000Y-67715000D02*
X160518000Y-67715000D01*
X160518000Y-70715000D02*
X172778000Y-70715000D01*
X160518000Y-67715000D02*
X160518000Y-70715000D01*
X121783000Y-89305000D02*
X121783000Y-92305000D01*
X121783000Y-92305000D02*
X134043000Y-92305000D01*
X134043000Y-89305000D02*
X121783000Y-89305000D01*
X134043000Y-92305000D02*
X134043000Y-89305000D01*
X160518000Y-75335000D02*
X160518000Y-78335000D01*
X160518000Y-78335000D02*
X172778000Y-78335000D01*
X172778000Y-75335000D02*
X160518000Y-75335000D01*
X172778000Y-78335000D02*
X172778000Y-75335000D01*
X160518000Y-72795000D02*
X160518000Y-75795000D01*
X160518000Y-75795000D02*
X172778000Y-75795000D01*
X172778000Y-72795000D02*
X160518000Y-72795000D01*
X172778000Y-75795000D02*
X172778000Y-72795000D01*
X157758000Y-131225000D02*
X160758000Y-131225000D01*
X160758000Y-131225000D02*
X160758000Y-118965000D01*
X157758000Y-118965000D02*
X157758000Y-131225000D01*
X160758000Y-118965000D02*
X157758000Y-118965000D01*
X160518000Y-77875000D02*
X160518000Y-80875000D01*
X160518000Y-80875000D02*
X172778000Y-80875000D01*
X172778000Y-77875000D02*
X160518000Y-77875000D01*
X172778000Y-80875000D02*
X172778000Y-77875000D01*
X85390000Y-54045000D02*
X85390000Y-56445000D01*
X92490000Y-54045000D02*
X85390000Y-54045000D01*
X85390000Y-56445000D02*
X92490000Y-56445000D01*
X92490000Y-56445000D02*
X92490000Y-54045000D01*
X107730000Y-56445000D02*
X107730000Y-54045000D01*
X107730000Y-54045000D02*
X100630000Y-54045000D01*
X100630000Y-54045000D02*
X100630000Y-56445000D01*
X100630000Y-56445000D02*
X107730000Y-56445000D01*
X93010000Y-83128000D02*
X93010000Y-85528000D01*
X93010000Y-85528000D02*
X100110000Y-85528000D01*
X100110000Y-85528000D02*
X100110000Y-83128000D01*
X100110000Y-83128000D02*
X93010000Y-83128000D01*
X191473500Y-109375000D02*
X197623500Y-109375000D01*
X197623500Y-100725000D02*
X191473500Y-100725000D01*
X197623500Y-109375000D02*
X197623500Y-100725000D01*
X191473500Y-100725000D02*
X191473500Y-109375000D01*
X186068500Y-76008000D02*
X178968500Y-76008000D01*
X178968500Y-76008000D02*
X178968500Y-78408000D01*
X178968500Y-78408000D02*
X186068500Y-78408000D01*
X186068500Y-78408000D02*
X186068500Y-76008000D01*
X187368500Y-78833000D02*
X177568500Y-78833000D01*
X177568500Y-78833000D02*
X177568500Y-89533000D01*
X177568500Y-89533000D02*
X187368500Y-89533000D01*
X187368500Y-89533000D02*
X187368500Y-78833000D01*
X187859500Y-90683000D02*
X198159500Y-90683000D01*
X198159500Y-77683000D02*
X187859500Y-77683000D01*
X187859500Y-77683000D02*
X187859500Y-90683000D01*
X198159500Y-90683000D02*
X198159500Y-77683000D01*
X194575500Y-76438000D02*
X194575500Y-67788000D01*
X194575500Y-67788000D02*
X188425500Y-67788000D01*
X188425500Y-76438000D02*
X194575500Y-76438000D01*
X188425500Y-67788000D02*
X188425500Y-76438000D01*
X191468500Y-91278000D02*
X191468500Y-97428000D01*
X197618500Y-91278000D02*
X191468500Y-91278000D01*
X197618500Y-97428000D02*
X197618500Y-91278000D01*
X191468500Y-97428000D02*
X197618500Y-97428000D01*
X176233500Y-66645000D02*
X176233500Y-72795000D01*
X179833500Y-66645000D02*
X176233500Y-66645000D01*
X176233500Y-72795000D02*
X179833500Y-72795000D01*
X179833500Y-72795000D02*
X179833500Y-66645000D01*
X176898500Y-94883000D02*
X185548500Y-94883000D01*
X185548500Y-94883000D02*
X185548500Y-91283000D01*
X185548500Y-91283000D02*
X176898500Y-91283000D01*
X176898500Y-91283000D02*
X176898500Y-94883000D01*
X149903000Y-86015000D02*
X159703000Y-86015000D01*
X149903000Y-67665000D02*
X149903000Y-86015000D01*
X159703000Y-86015000D02*
X159703000Y-67665000D01*
X159703000Y-67665000D02*
X149903000Y-67665000D01*
X79004000Y-59680000D02*
X73144000Y-59680000D01*
X73144000Y-147830000D02*
X73144000Y-140970000D01*
X59414000Y-147830000D02*
X73144000Y-147830000D01*
X73144000Y-52830000D02*
X59414000Y-52830000D01*
X59414000Y-52830000D02*
X59414000Y-147830000D01*
X73144000Y-140970000D02*
X79004000Y-140970000D01*
X73144000Y-59680000D02*
X73144000Y-52830000D01*
X79004000Y-140970000D02*
X79004000Y-59680000D01*
X128308000Y-131515000D02*
X128308000Y-133915000D01*
X135408000Y-133915000D02*
X135408000Y-131515000D01*
X135408000Y-131515000D02*
X128308000Y-131515000D01*
X128308000Y-133915000D02*
X135408000Y-133915000D01*
X144903000Y-94335000D02*
X127553000Y-94335000D01*
X127553000Y-94335000D02*
X127553000Y-130435000D01*
X127553000Y-130435000D02*
X144903000Y-130435000D01*
X144903000Y-130435000D02*
X144903000Y-94335000D01*
X145128000Y-133765000D02*
X147528000Y-133765000D01*
X147528000Y-126665000D02*
X145128000Y-126665000D01*
X147528000Y-133765000D02*
X147528000Y-126665000D01*
X145128000Y-126665000D02*
X145128000Y-133765000D01*
X124958000Y-59620000D02*
X132058000Y-59620000D01*
X124958000Y-57220000D02*
X124958000Y-59620000D01*
X132058000Y-59620000D02*
X132058000Y-57220000D01*
X132058000Y-57220000D02*
X124958000Y-57220000D01*
X123803000Y-138285000D02*
X123803000Y-94085000D01*
X127353000Y-94085000D02*
X127353000Y-138285000D01*
X127353000Y-138285000D02*
X123803000Y-138285000D01*
X123803000Y-94085000D02*
X127353000Y-94085000D01*
X198573000Y-62155000D02*
X204673000Y-62155000D01*
X204673000Y-113955000D02*
X198573000Y-113955000D01*
X204673000Y-62155000D02*
X204673000Y-113955000D01*
X198573000Y-113955000D02*
X198573000Y-62155000D01*
X204553000Y-117025000D02*
G75*
G03*
X204553000Y-117025000I-2950000J0D01*
G01*
X181553000Y-59025000D02*
G75*
G03*
X181553000Y-59025000I-2950000J0D01*
G01*
X181553000Y-117025000D02*
G75*
G03*
X181553000Y-117025000I-2950000J0D01*
G01*
X204553000Y-59025000D02*
G75*
G03*
X204553000Y-59025000I-2950000J0D01*
G01*
X149343000Y-89211000D02*
X156443000Y-89211000D01*
X156443000Y-89211000D02*
X156443000Y-86811000D01*
X156443000Y-86811000D02*
X149343000Y-86811000D01*
X149343000Y-86811000D02*
X149343000Y-89211000D01*
X120463000Y-62585000D02*
X120463000Y-80935000D01*
X130263000Y-62585000D02*
X120463000Y-62585000D01*
X130263000Y-80935000D02*
X130263000Y-62585000D01*
X120463000Y-80935000D02*
X130263000Y-80935000D01*
X207422800Y-119730000D02*
X207422800Y-98943800D01*
X207422800Y-98943800D02*
X227072800Y-98943800D01*
X227072800Y-119730000D02*
X207422800Y-119730000D01*
X227072800Y-98943800D02*
X227072800Y-119730000D01*
X112224000Y-142510000D02*
G75*
G03*
X112224000Y-142510000I-2750000J0D01*
G01*
X207422800Y-139730000D02*
X207422800Y-118943800D01*
X207422800Y-118943800D02*
X227072800Y-118943800D01*
X227072800Y-139730000D02*
X207422800Y-139730000D01*
X227072800Y-118943800D02*
X227072800Y-139730000D01*
X105964000Y-85795000D02*
X105964000Y-88195000D01*
X105964000Y-88195000D02*
X113064000Y-88195000D01*
X113064000Y-85795000D02*
X105964000Y-85795000D01*
X113064000Y-88195000D02*
X113064000Y-85795000D01*
X173553000Y-117025000D02*
G75*
G03*
X173553000Y-117025000I-2950000J0D01*
G01*
X173553000Y-59025000D02*
G75*
G03*
X173553000Y-59025000I-2950000J0D01*
G01*
X226780000Y-54046000D02*
G75*
G03*
X226780000Y-54046000I-2950000J0D01*
G01*
X207422800Y-78943800D02*
X227072800Y-78943800D01*
X227072800Y-99730000D02*
X207422800Y-99730000D01*
X207422800Y-99730000D02*
X207422800Y-78943800D01*
X227072800Y-78943800D02*
X227072800Y-99730000D01*
X207422800Y-79730000D02*
X207422800Y-58943800D01*
X207422800Y-58943800D02*
X227072800Y-58943800D01*
X227072800Y-79730000D02*
X207422800Y-79730000D01*
X227072800Y-58943800D02*
X227072800Y-79730000D01*
X106218000Y-113735000D02*
X106218000Y-116135000D01*
X106218000Y-116135000D02*
X113318000Y-116135000D01*
X113318000Y-113735000D02*
X106218000Y-113735000D01*
X113318000Y-116135000D02*
X113318000Y-113735000D01*
X152713000Y-66405000D02*
G75*
G03*
X152713000Y-66405000I-4250000J0D01*
G01*
X124553000Y-117025000D02*
G75*
G03*
X124553000Y-117025000I-2950000J0D01*
G01*
X114364000Y-88620000D02*
X104564000Y-88620000D01*
X114364000Y-109470000D02*
X114364000Y-88620000D01*
X104564000Y-88620000D02*
X104564000Y-109470000D01*
X104564000Y-109470000D02*
X114364000Y-109470000D01*
X169063000Y-86811000D02*
X161963000Y-86811000D01*
X161963000Y-89211000D02*
X169063000Y-89211000D01*
X161963000Y-86811000D02*
X161963000Y-89211000D01*
X169063000Y-89211000D02*
X169063000Y-86811000D01*
X121863000Y-85655000D02*
X128963000Y-85655000D01*
X128963000Y-85655000D02*
X128963000Y-83255000D01*
X121863000Y-83255000D02*
X121863000Y-85655000D01*
X128963000Y-83255000D02*
X121863000Y-83255000D01*
X156443000Y-110115000D02*
X149343000Y-110115000D01*
X149343000Y-112515000D02*
X156443000Y-112515000D01*
X149343000Y-110115000D02*
X149343000Y-112515000D01*
X156443000Y-112515000D02*
X156443000Y-110115000D01*
X160468000Y-89890000D02*
X160468000Y-110740000D01*
X170268000Y-110740000D02*
X170268000Y-89890000D01*
X170268000Y-89890000D02*
X160468000Y-89890000D01*
X160468000Y-110740000D02*
X170268000Y-110740000D01*
X162853000Y-137515000D02*
G75*
G03*
X162853000Y-137515000I-4250000J0D01*
G01*
X124553000Y-59025000D02*
G75*
G03*
X124553000Y-59025000I-2950000J0D01*
G01*
X101390000Y-86080000D02*
X84040000Y-86080000D01*
X84040000Y-127280000D02*
X101390000Y-127280000D01*
X101390000Y-127280000D02*
X101390000Y-86080000D01*
X84040000Y-86080000D02*
X84040000Y-127280000D01*
X161778000Y-59960000D02*
G75*
G03*
X161778000Y-59960000I-2750000J0D01*
G01*
X158983000Y-64205000D02*
X151883000Y-64205000D01*
X151883000Y-64205000D02*
X151883000Y-66605000D01*
X151883000Y-66605000D02*
X158983000Y-66605000D01*
X158983000Y-66605000D02*
X158983000Y-64205000D01*
X170533000Y-119485000D02*
X170533000Y-133185000D01*
X166983000Y-119485000D02*
X170533000Y-119485000D01*
X166983000Y-133185000D02*
X166983000Y-119485000D01*
X170533000Y-133185000D02*
X166983000Y-133185000D01*
X226780000Y-147046000D02*
G75*
G03*
X226780000Y-147046000I-2950000J0D01*
G01*
X166088000Y-114955000D02*
G75*
G03*
X166088000Y-114955000I-3250000J0D01*
G01*
X147768000Y-108240000D02*
X157568000Y-108240000D01*
X147768000Y-89890000D02*
X147768000Y-108240000D01*
X157568000Y-89890000D02*
X147768000Y-89890000D01*
X157568000Y-108240000D02*
X157568000Y-89890000D01*
X104564000Y-137425000D02*
X114364000Y-137425000D01*
X114364000Y-116575000D02*
X104564000Y-116575000D01*
X104564000Y-116575000D02*
X104564000Y-137425000D01*
X114364000Y-137425000D02*
X114364000Y-116575000D01*
X142958000Y-135525000D02*
G75*
G03*
X142958000Y-135525000I-2750000J0D01*
G01*
X147768000Y-113385000D02*
X147768000Y-134235000D01*
X157568000Y-134235000D02*
X157568000Y-113385000D01*
X157568000Y-113385000D02*
X147768000Y-113385000D01*
X147768000Y-134235000D02*
X157568000Y-134235000D01*
M02*
