G04 #@! TF.GenerationSoftware,KiCad,Pcbnew,9.0.5*
G04 #@! TF.CreationDate,2025-10-14T13:16:44+01:00*
G04 #@! TF.ProjectId,A7000PoduleFacePlate,41373030-3050-46f6-9475-6c6546616365,01*
G04 #@! TF.SameCoordinates,Original*
G04 #@! TF.FileFunction,Copper,L1,Top*
G04 #@! TF.FilePolarity,Positive*
%FSLAX46Y46*%
G04 Gerber Fmt 4.6, Leading zero omitted, Abs format (unit mm)*
G04 Created by KiCad (PCBNEW 9.0.5) date 2025-10-14 13:16:44*
%MOMM*%
%LPD*%
G01*
G04 APERTURE LIST*
G04 APERTURE END LIST*
G04 #@! TA.AperFunction,NonConductor*
G36*
X223487621Y-78065502D02*
G01*
X223534114Y-78119158D01*
X223545500Y-78171500D01*
X223545500Y-101918500D01*
X223525498Y-101986621D01*
X223471842Y-102033114D01*
X223419500Y-102044500D01*
X96072500Y-102044500D01*
X96004379Y-102024498D01*
X95957886Y-101970842D01*
X95946500Y-101918500D01*
X95946500Y-94897491D01*
X96245500Y-94897491D01*
X96245500Y-95192508D01*
X96284005Y-95484985D01*
X96284006Y-95484991D01*
X96284007Y-95484993D01*
X96360361Y-95769952D01*
X96473257Y-96042507D01*
X96473258Y-96042508D01*
X96473263Y-96042519D01*
X96620759Y-96297990D01*
X96620764Y-96297997D01*
X96800346Y-96532033D01*
X96800365Y-96532054D01*
X97008945Y-96740634D01*
X97008966Y-96740653D01*
X97243002Y-96920235D01*
X97243009Y-96920240D01*
X97498480Y-97067736D01*
X97498484Y-97067737D01*
X97498493Y-97067743D01*
X97771048Y-97180639D01*
X98056007Y-97256993D01*
X98056013Y-97256993D01*
X98056014Y-97256994D01*
X98089574Y-97261412D01*
X98348494Y-97295500D01*
X98348501Y-97295500D01*
X98643499Y-97295500D01*
X98643506Y-97295500D01*
X98935993Y-97256993D01*
X99220952Y-97180639D01*
X99493507Y-97067743D01*
X99748994Y-96920238D01*
X99983042Y-96740646D01*
X100191646Y-96532042D01*
X100371238Y-96297994D01*
X100518743Y-96042507D01*
X100631639Y-95769952D01*
X100707993Y-95484993D01*
X100746500Y-95192506D01*
X100746500Y-94897494D01*
X100746500Y-94897491D01*
X218745500Y-94897491D01*
X218745500Y-95192508D01*
X218784005Y-95484985D01*
X218784006Y-95484991D01*
X218784007Y-95484993D01*
X218860361Y-95769952D01*
X218973257Y-96042507D01*
X218973258Y-96042508D01*
X218973263Y-96042519D01*
X219120759Y-96297990D01*
X219120764Y-96297997D01*
X219300346Y-96532033D01*
X219300365Y-96532054D01*
X219508945Y-96740634D01*
X219508966Y-96740653D01*
X219743002Y-96920235D01*
X219743009Y-96920240D01*
X219998480Y-97067736D01*
X219998484Y-97067737D01*
X219998493Y-97067743D01*
X220271048Y-97180639D01*
X220556007Y-97256993D01*
X220556013Y-97256993D01*
X220556014Y-97256994D01*
X220589574Y-97261412D01*
X220848494Y-97295500D01*
X220848501Y-97295500D01*
X221143499Y-97295500D01*
X221143506Y-97295500D01*
X221435993Y-97256993D01*
X221720952Y-97180639D01*
X221993507Y-97067743D01*
X222248994Y-96920238D01*
X222483042Y-96740646D01*
X222691646Y-96532042D01*
X222871238Y-96297994D01*
X223018743Y-96042507D01*
X223131639Y-95769952D01*
X223207993Y-95484993D01*
X223246500Y-95192506D01*
X223246500Y-94897494D01*
X223207993Y-94605007D01*
X223131639Y-94320048D01*
X223018743Y-94047493D01*
X223018737Y-94047484D01*
X223018736Y-94047480D01*
X222871240Y-93792009D01*
X222871235Y-93792002D01*
X222691653Y-93557966D01*
X222691634Y-93557945D01*
X222483054Y-93349365D01*
X222483033Y-93349346D01*
X222248997Y-93169764D01*
X222248990Y-93169759D01*
X221993519Y-93022263D01*
X221993511Y-93022259D01*
X221993507Y-93022257D01*
X221720952Y-92909361D01*
X221435993Y-92833007D01*
X221435991Y-92833006D01*
X221435985Y-92833005D01*
X221143508Y-92794500D01*
X221143506Y-92794500D01*
X220848494Y-92794500D01*
X220848491Y-92794500D01*
X220556014Y-92833005D01*
X220271048Y-92909361D01*
X219998491Y-93022258D01*
X219998480Y-93022263D01*
X219743009Y-93169759D01*
X219743002Y-93169764D01*
X219508966Y-93349346D01*
X219508945Y-93349365D01*
X219300365Y-93557945D01*
X219300346Y-93557966D01*
X219120764Y-93792002D01*
X219120759Y-93792009D01*
X218973263Y-94047480D01*
X218973258Y-94047491D01*
X218860361Y-94320048D01*
X218784005Y-94605014D01*
X218745500Y-94897491D01*
X100746500Y-94897491D01*
X100707993Y-94605007D01*
X100631639Y-94320048D01*
X100518743Y-94047493D01*
X100518737Y-94047484D01*
X100518736Y-94047480D01*
X100371240Y-93792009D01*
X100371235Y-93792002D01*
X100191653Y-93557966D01*
X100191634Y-93557945D01*
X99983054Y-93349365D01*
X99983033Y-93349346D01*
X99748997Y-93169764D01*
X99748990Y-93169759D01*
X99493519Y-93022263D01*
X99493511Y-93022259D01*
X99493507Y-93022257D01*
X99220952Y-92909361D01*
X98935993Y-92833007D01*
X98935991Y-92833006D01*
X98935985Y-92833005D01*
X98643508Y-92794500D01*
X98643506Y-92794500D01*
X98348494Y-92794500D01*
X98348491Y-92794500D01*
X98056014Y-92833005D01*
X97771048Y-92909361D01*
X97498491Y-93022258D01*
X97498480Y-93022263D01*
X97243009Y-93169759D01*
X97243002Y-93169764D01*
X97008966Y-93349346D01*
X97008945Y-93349365D01*
X96800365Y-93557945D01*
X96800346Y-93557966D01*
X96620764Y-93792002D01*
X96620759Y-93792009D01*
X96473263Y-94047480D01*
X96473258Y-94047491D01*
X96360361Y-94320048D01*
X96284005Y-94605014D01*
X96245500Y-94897491D01*
X95946500Y-94897491D01*
X95946500Y-90897491D01*
X110995500Y-90897491D01*
X110995500Y-91192508D01*
X111034005Y-91484985D01*
X111034006Y-91484991D01*
X111034007Y-91484993D01*
X111110361Y-91769952D01*
X111223257Y-92042507D01*
X111223258Y-92042508D01*
X111223263Y-92042519D01*
X111370759Y-92297990D01*
X111370764Y-92297997D01*
X111550346Y-92532033D01*
X111550365Y-92532054D01*
X111758945Y-92740634D01*
X111758966Y-92740653D01*
X111993002Y-92920235D01*
X111993009Y-92920240D01*
X112248480Y-93067736D01*
X112248484Y-93067737D01*
X112248493Y-93067743D01*
X112521048Y-93180639D01*
X112806007Y-93256993D01*
X112806013Y-93256993D01*
X112806014Y-93256994D01*
X112839574Y-93261412D01*
X113098494Y-93295500D01*
X113098501Y-93295500D01*
X113393499Y-93295500D01*
X113393506Y-93295500D01*
X113685993Y-93256993D01*
X113970952Y-93180639D01*
X114243507Y-93067743D01*
X114498994Y-92920238D01*
X114733042Y-92740646D01*
X114941646Y-92532042D01*
X115121238Y-92297994D01*
X115268743Y-92042507D01*
X115381639Y-91769952D01*
X115457993Y-91484993D01*
X115496500Y-91192506D01*
X115496500Y-90897494D01*
X115496500Y-90897491D01*
X203995500Y-90897491D01*
X203995500Y-91192508D01*
X204034005Y-91484985D01*
X204034006Y-91484991D01*
X204034007Y-91484993D01*
X204110361Y-91769952D01*
X204223257Y-92042507D01*
X204223258Y-92042508D01*
X204223263Y-92042519D01*
X204370759Y-92297990D01*
X204370764Y-92297997D01*
X204550346Y-92532033D01*
X204550365Y-92532054D01*
X204758945Y-92740634D01*
X204758966Y-92740653D01*
X204993002Y-92920235D01*
X204993009Y-92920240D01*
X205248480Y-93067736D01*
X205248484Y-93067737D01*
X205248493Y-93067743D01*
X205521048Y-93180639D01*
X205806007Y-93256993D01*
X205806013Y-93256993D01*
X205806014Y-93256994D01*
X205839574Y-93261412D01*
X206098494Y-93295500D01*
X206098501Y-93295500D01*
X206393499Y-93295500D01*
X206393506Y-93295500D01*
X206685993Y-93256993D01*
X206970952Y-93180639D01*
X207243507Y-93067743D01*
X207498994Y-92920238D01*
X207733042Y-92740646D01*
X207941646Y-92532042D01*
X208121238Y-92297994D01*
X208268743Y-92042507D01*
X208381639Y-91769952D01*
X208457993Y-91484993D01*
X208496500Y-91192506D01*
X208496500Y-90897494D01*
X208457993Y-90605007D01*
X208381639Y-90320048D01*
X208268743Y-90047493D01*
X208268737Y-90047484D01*
X208268736Y-90047480D01*
X208121240Y-89792009D01*
X208121235Y-89792002D01*
X207941653Y-89557966D01*
X207941634Y-89557945D01*
X207733054Y-89349365D01*
X207733033Y-89349346D01*
X207498997Y-89169764D01*
X207498990Y-89169759D01*
X207243519Y-89022263D01*
X207243511Y-89022259D01*
X207243507Y-89022257D01*
X206970952Y-88909361D01*
X206685993Y-88833007D01*
X206685991Y-88833006D01*
X206685985Y-88833005D01*
X206393508Y-88794500D01*
X206393506Y-88794500D01*
X206098494Y-88794500D01*
X206098491Y-88794500D01*
X205806014Y-88833005D01*
X205806007Y-88833007D01*
X205521048Y-88909361D01*
X205338457Y-88984993D01*
X205248491Y-89022258D01*
X205248480Y-89022263D01*
X204993009Y-89169759D01*
X204993002Y-89169764D01*
X204758966Y-89349346D01*
X204758945Y-89349365D01*
X204550365Y-89557945D01*
X204550346Y-89557966D01*
X204370764Y-89792002D01*
X204370759Y-89792009D01*
X204223263Y-90047480D01*
X204223258Y-90047491D01*
X204223257Y-90047493D01*
X204110361Y-90320048D01*
X204034005Y-90605014D01*
X203995500Y-90897491D01*
X115496500Y-90897491D01*
X115457993Y-90605007D01*
X115381639Y-90320048D01*
X115268743Y-90047493D01*
X115268737Y-90047484D01*
X115268736Y-90047480D01*
X115121240Y-89792009D01*
X115121235Y-89792002D01*
X114941653Y-89557966D01*
X114941634Y-89557945D01*
X114733054Y-89349365D01*
X114733033Y-89349346D01*
X114498997Y-89169764D01*
X114498990Y-89169759D01*
X114243519Y-89022263D01*
X114243511Y-89022259D01*
X114243507Y-89022257D01*
X113970952Y-88909361D01*
X113685993Y-88833007D01*
X113685991Y-88833006D01*
X113685985Y-88833005D01*
X113393508Y-88794500D01*
X113393506Y-88794500D01*
X113098494Y-88794500D01*
X113098491Y-88794500D01*
X112806014Y-88833005D01*
X112806007Y-88833007D01*
X112521048Y-88909361D01*
X112338457Y-88984993D01*
X112248491Y-89022258D01*
X112248480Y-89022263D01*
X111993009Y-89169759D01*
X111993002Y-89169764D01*
X111758966Y-89349346D01*
X111758945Y-89349365D01*
X111550365Y-89557945D01*
X111550346Y-89557966D01*
X111370764Y-89792002D01*
X111370759Y-89792009D01*
X111223263Y-90047480D01*
X111223258Y-90047491D01*
X111223257Y-90047493D01*
X111110361Y-90320048D01*
X111034005Y-90605014D01*
X110995500Y-90897491D01*
X95946500Y-90897491D01*
X95946500Y-88397491D01*
X127495500Y-88397491D01*
X127495500Y-88692508D01*
X127534005Y-88984985D01*
X127534006Y-88984991D01*
X127534007Y-88984993D01*
X127610361Y-89269952D01*
X127723257Y-89542507D01*
X127723258Y-89542508D01*
X127723263Y-89542519D01*
X127870759Y-89797990D01*
X127870764Y-89797997D01*
X128050346Y-90032033D01*
X128050365Y-90032054D01*
X128258945Y-90240634D01*
X128258966Y-90240653D01*
X128493002Y-90420235D01*
X128493009Y-90420240D01*
X128748480Y-90567736D01*
X128748484Y-90567737D01*
X128748493Y-90567743D01*
X129021048Y-90680639D01*
X129306007Y-90756993D01*
X129306013Y-90756993D01*
X129306014Y-90756994D01*
X129339574Y-90761412D01*
X129598494Y-90795500D01*
X129598501Y-90795500D01*
X129893499Y-90795500D01*
X129893506Y-90795500D01*
X130045620Y-90775473D01*
X130098994Y-90768447D01*
X130185985Y-90756994D01*
X130185984Y-90756994D01*
X130185993Y-90756993D01*
X130470952Y-90680639D01*
X130743507Y-90567743D01*
X130998994Y-90420238D01*
X131233042Y-90240646D01*
X131441646Y-90032042D01*
X131621238Y-89797994D01*
X131768743Y-89542507D01*
X131881639Y-89269952D01*
X131957993Y-88984993D01*
X131996500Y-88692506D01*
X131996500Y-88397494D01*
X131957993Y-88105007D01*
X131881639Y-87820048D01*
X131768743Y-87547493D01*
X131768737Y-87547484D01*
X131768736Y-87547480D01*
X131621240Y-87292009D01*
X131621235Y-87292002D01*
X131441653Y-87057966D01*
X131441634Y-87057945D01*
X131233054Y-86849365D01*
X131233033Y-86849346D01*
X130998997Y-86669764D01*
X130998990Y-86669759D01*
X130743519Y-86522263D01*
X130743511Y-86522259D01*
X130743507Y-86522257D01*
X130470952Y-86409361D01*
X130185993Y-86333007D01*
X130185991Y-86333006D01*
X130185985Y-86333005D01*
X129893508Y-86294500D01*
X129893506Y-86294500D01*
X129598494Y-86294500D01*
X129598491Y-86294500D01*
X129306014Y-86333005D01*
X129021048Y-86409361D01*
X128748491Y-86522258D01*
X128748480Y-86522263D01*
X128493009Y-86669759D01*
X128493002Y-86669764D01*
X128258966Y-86849346D01*
X128258945Y-86849365D01*
X128050365Y-87057945D01*
X128050346Y-87057966D01*
X127870764Y-87292002D01*
X127870759Y-87292009D01*
X127723263Y-87547480D01*
X127723258Y-87547491D01*
X127610361Y-87820048D01*
X127534005Y-88105014D01*
X127495500Y-88397491D01*
X95946500Y-88397491D01*
X95946500Y-78171500D01*
X95966502Y-78103379D01*
X96020158Y-78056886D01*
X96072500Y-78045500D01*
X223419500Y-78045500D01*
X223487621Y-78065502D01*
G37*
G04 #@! TD.AperFunction*
M02*
